<svg width="89" height="24" viewBox="0 0 89 24" fill="none" xmlns="http://www.w3.org/2000/svg">
<path fill-rule="evenodd" clip-rule="evenodd" d="M4.4589 15.6567H2.6344L1.6465 12.13H6.7996L15.9488 0H22.8908L21.1553 12.0881L30.8118 12.1298L31.239 12.6157C33.553 11.1247 36.6769 11.1247 37.7982 13.0096C39.3468 11.4346 42.8178 11.3424 43.9926 13.3613C44.4376 14.1402 44.3664 15.1708 43.9926 16.4106L42.5865 20.6494C42.6755 21.085 43.1917 22.0568 41.9279 22.0568H37.0062L38.5993 17.3824C39.0176 16.0084 37.2376 16.0084 36.8193 17.3404L35.2707 22.015H30.2066L31.7552 17.2483C32.218 15.8829 30.3401 15.8829 29.9663 17.2901L28.4177 21.9729H23.1222L24.7598 16.9802C24.8577 16.6284 24.8132 16.3184 24.1101 16.3184H20.5412L19.7491 21.9479L12.104 21.9729L13.1364 16.3184H8.6775L3.2841 24L0 21.5709L4.4589 15.6567ZM11.5433 12.1216L13.9107 12.1468L14.7295 7.67349L11.5433 12.1216ZM79.1922 22.1406C77.973 22.4924 75.9081 22.7185 74.7422 21.7468C73.5674 20.7751 73.523 18.3875 74.226 16.6702C75.1604 14.333 76.8515 12.1717 79.3791 11.82C81.0256 11.6022 83.037 12.2137 84.2118 13.1855L84.4433 12.4817H89L86.1787 21.043C86.3656 21.4786 86.7929 22.0985 85.805 22.0985H81.0257L81.2838 21.2609C80.6695 21.5878 79.9486 21.9645 79.1922 22.1406ZM79.0587 18.0609C79.1744 18.2368 79.4592 18.4629 79.9754 18.287C80.8921 17.9938 82.4853 16.5865 82.7434 15.5896C82.0848 14.7099 81.1502 14.5088 80.1623 15.3049C79.6017 15.7656 78.6671 17.4243 79.0587 18.0609ZM45.7639 21.7468C44.5891 20.7751 44.5445 18.438 45.2477 16.6702C46.1376 14.333 47.873 12.1717 50.4097 11.8284C52.0473 11.6106 54.0676 12.2137 55.2424 13.1855L55.4737 12.4817H60.0217L57.2093 21.043C57.3962 21.487 57.8145 22.0985 56.8356 22.0985H52.0474L52.3055 21.3111C51.7003 21.6379 50.9438 21.9729 50.2229 22.1487C49.0034 22.4587 46.9387 22.7185 45.7639 21.7468ZM50.2851 18.0609C50.3829 18.2621 50.7122 18.4629 51.2018 18.287C52.1185 17.977 53.7115 16.5865 53.9696 15.5896C53.311 14.7099 52.3943 14.467 51.3887 15.3049C50.8725 15.7487 49.9558 17.3572 50.2851 18.0609ZM63.9108 22.0066L65.4595 17.3322C65.8866 16.0085 67.5688 15.9668 67.1505 17.3322L65.7442 22.0568H70.5681C71.8407 22.0568 71.3245 21.085 71.2267 20.641L72.6328 16.4023C73.0065 15.1708 73.0333 14.375 72.5439 13.5372C71.44 11.6859 68.2718 11.6272 66.4474 13.1352L66.1181 12.5237H61.9438L58.8467 22.0065H63.9108V22.0066Z" fill="black"/>
</svg>
