<svg width="98" height="28" viewBox="0 0 98 28" fill="none" xmlns="http://www.w3.org/2000/svg">
<path d="M95.6126 4.20138C96.3789 4.20138 97.0001 3.5802 97.0001 2.81395C97.0001 2.04769 96.3789 1.42651 95.6126 1.42651C94.8464 1.42651 94.2252 2.04769 94.2252 2.81395C94.2252 3.5802 94.8464 4.20138 95.6126 4.20138Z" stroke="#ED1C24" stroke-width="0.563" stroke-miterlimit="3.864"/>
<path fill-rule="evenodd" clip-rule="evenodd" d="M95.2657 2.20692V2.72721H95.6992C95.786 2.72721 95.8727 2.72721 95.8727 2.64049C95.9594 2.55378 95.9594 2.55378 95.9594 2.46706C95.9594 2.29364 95.8727 2.20692 95.6992 2.20692H95.2657ZM95.0055 3.68107V1.94678H95.6992C95.8727 1.94678 95.9594 1.94678 96.0461 2.03349C96.1328 2.12021 96.2195 2.29364 96.2195 2.38035C96.2195 2.46706 96.2195 2.55378 96.1328 2.64049C96.0461 2.72721 95.9594 2.81392 95.8727 2.81392L96.3062 3.59435H95.9594L95.6125 2.90064H95.2657V3.59435H95.0055V3.68107Z" fill="#ED1C24"/>
<path fill-rule="evenodd" clip-rule="evenodd" d="M90.7566 7.06294C89.6293 7.06294 89.0223 7.75665 89.0223 9.14409C89.0223 9.66437 89.1957 10.0979 89.4558 10.3581C89.8027 10.7049 90.2363 10.8784 90.7566 10.9651C91.9706 10.9651 92.5776 10.3581 92.5776 9.05737C92.5776 7.75665 91.9706 7.06294 90.7566 7.06294ZM0.400024 15.6477C0.660168 15.6477 90.5831 15.6477 90.8433 15.561C91.537 15.4742 91.9706 15.3008 92.2307 15.0407C92.4909 14.7805 92.5776 13.9134 92.5776 13.3064V12.526C91.7971 13.2197 90.7566 13.5665 89.4558 13.5665C87.9817 13.5665 86.8544 13.133 85.9006 12.2658C85.0334 11.4854 84.6866 10.4448 84.6866 9.14409C84.6866 7.75665 85.1201 6.62936 85.9006 5.76222C86.7677 4.80836 87.9817 4.37479 89.5426 4.37479C90.93 4.37479 92.0573 4.89507 92.8377 5.84893V4.63493H96.6532V12.9595C96.6532 14.6071 96.393 15.8211 95.786 16.5148C95.0056 17.4687 93.4447 18.2491 91.0167 18.2491C89.8027 18.3358 1.4406 18.1624 0.400024 18.1624V15.6477ZM77.4025 13.3931V4.89507H80.9578V6.62936C81.4781 5.32865 82.5187 4.63493 83.9928 4.63493L84.5131 4.72165V8.10351L83.7327 8.0168C82.8655 8.0168 82.1718 8.27694 81.825 8.71051C81.4781 9.05737 81.3047 9.66437 81.3047 10.5315V13.4798H77.4025V13.3931ZM76.6221 9.66437H68.7311C68.7311 10.1847 68.9045 10.6182 69.3381 10.9651C69.7717 11.312 70.2052 11.4854 70.8122 11.4854C71.5927 11.4854 72.0262 11.2252 72.3731 10.7049H76.362C76.0151 11.7455 75.3214 12.526 74.1074 13.0462C73.1535 13.4798 71.9395 13.74 70.5521 13.74C68.8178 13.74 67.4304 13.3064 66.3031 12.526C65.1758 11.6588 64.5688 10.5315 64.5688 9.05737C64.5688 7.58323 65.0891 6.36922 66.2164 5.50208C67.3437 4.63493 68.7311 4.20136 70.4654 4.20136C72.3731 4.20136 73.8472 4.72165 74.9745 5.76222C76.1018 6.62936 76.6221 8.0168 76.6221 9.66437ZM68.7311 7.84337H72.4598C72.4598 7.4098 72.2864 7.06294 71.9395 6.71608C71.5927 6.36922 71.1591 6.28251 70.6388 6.28251C69.3381 6.28251 68.7311 6.80279 68.7311 7.84337ZM57.6316 11.3119C58.8456 11.3119 59.5393 10.6182 59.5393 9.2308C59.5393 8.71051 59.3659 8.19023 59.1058 7.84337C58.7589 7.4098 58.3253 7.14965 57.6316 7.14965C57.0246 7.14965 56.5043 7.32308 56.1575 7.75665C55.8973 8.10351 55.7239 8.53709 55.7239 9.05737C55.7239 9.57766 55.8973 10.0979 56.1575 10.4448C56.5043 11.0518 57.0246 11.3119 57.6316 11.3119ZM55.8973 1.42649V5.58879C56.6778 4.80836 57.805 4.4615 59.1058 4.4615C60.6666 4.4615 61.8806 4.98179 62.7478 5.93565C63.5282 6.80279 63.9618 7.84337 63.9618 9.14409C63.9618 10.5315 63.6149 11.6588 62.8345 12.526C61.9673 13.4798 60.6666 13.9134 58.9323 13.9134C57.2848 13.9134 56.1575 13.3931 55.4638 12.4392V13.6532H51.4749V1.51321H55.8973V1.42649ZM32.1375 13.4798V4.89507H35.953V6.19579C36.2998 5.76222 36.8201 5.41536 37.4271 5.0685C38.0341 4.80836 38.6411 4.63493 39.2481 4.63493C40.9824 4.63493 42.1097 5.15522 42.63 6.19579C43.5839 5.15522 44.7112 4.63493 46.272 4.63493C47.7462 4.63493 48.7867 4.98179 49.3937 5.67551C50.0007 6.28251 50.2609 7.14965 50.2609 8.45037V13.5665H46.0986V9.2308C46.0986 8.6238 46.0119 8.27694 45.9252 8.0168C45.7517 7.66994 45.3182 7.49651 44.7112 7.49651C43.7573 7.49651 43.237 8.10351 43.237 9.40423V13.6532H39.0747V9.31752C39.0747 8.71051 38.988 8.36366 38.9013 8.10351C38.7279 7.75665 38.2943 7.58323 37.6873 7.58323C36.7334 7.58323 36.2131 8.19023 36.2131 9.49094V13.74H32.1375V13.4798ZM18.6101 9.2308C18.6101 7.66994 19.2171 6.36922 20.3444 5.50208C21.4717 4.63493 23.0325 4.20136 24.9402 4.20136C26.848 4.20136 28.3221 4.63493 29.5361 5.41536C30.7501 6.28251 31.3571 7.49651 31.3571 8.97066C31.3571 10.5315 30.7501 11.8322 29.6228 12.6994C28.4955 13.5665 26.9347 14.0001 24.9402 14.0001C23.0325 14.0001 21.5584 13.5665 20.3444 12.7861C19.2171 11.919 18.6101 10.7049 18.6101 9.2308ZM25.027 6.71608C24.3332 6.71608 23.813 6.97622 23.4661 7.49651C23.2059 7.93008 23.0325 8.45037 23.0325 9.05737C23.0325 10.7049 23.6395 11.5721 24.9402 11.5721C26.241 11.5721 26.848 10.7049 26.848 9.05737C26.848 8.45037 26.6745 7.93008 26.4144 7.49651C26.1542 6.97622 25.7207 6.62936 25.027 6.71608ZM17.8296 13.4798H13.8408V1.16635H17.8296V13.4798ZM7.07704 13.8267H0.400024V0.99292H6.90361C10.5456 0.99292 12.4533 2.03349 12.4533 4.20136C12.4533 5.32865 11.8463 6.28251 10.6323 6.97622C11.3261 7.14965 11.9331 7.49651 12.2799 8.0168C12.7135 8.53709 12.8869 9.14409 12.8869 9.92452C12.8869 12.526 10.9792 13.8267 7.07704 13.8267ZM6.47004 4.02793H4.90918V6.19579H6.73019C7.77076 6.19579 8.29105 5.84893 8.29105 5.0685C8.29105 4.63493 8.11762 4.28807 7.77076 4.20136C7.51062 4.02793 7.07704 4.02793 6.47004 4.02793ZM6.29661 8.45037H4.90918V10.7917H6.90361C8.20433 10.7917 8.81133 10.3581 8.81133 9.57766C8.81133 9.05737 8.55119 8.71051 8.11762 8.53709C7.77076 8.53709 7.16376 8.45037 6.29661 8.45037Z" fill="#E31837"/>
<path d="M69.1646 25.7064C69.1646 25.8798 69.2513 26.0533 69.338 26.14C69.4247 26.2267 69.5982 26.3134 69.7716 26.3134C69.945 26.3134 70.0317 26.3134 70.2052 26.2267C70.2919 26.14 70.3786 26.0533 70.3786 25.8798C70.3786 25.7064 70.3786 25.6197 70.2919 25.533C70.2052 25.4463 70.1185 25.4463 70.0317 25.3595L69.2513 25.0994C68.9912 25.0127 68.731 24.8392 68.5576 24.6658C68.3842 24.4924 68.2975 24.2322 68.2975 23.9721C68.2975 23.7987 68.2975 23.6252 68.3842 23.4518C68.4709 23.2784 68.5576 23.1917 68.6443 23.0182C68.731 22.9315 68.9045 22.8448 69.1646 22.7581C69.338 22.6714 69.5982 22.6714 69.8583 22.6714C70.3786 22.6714 70.7255 22.7581 70.9856 23.0182C71.2457 23.2784 71.3325 23.5385 71.3325 23.8854V24.0588H70.3786C70.3786 23.7987 70.3786 23.712 70.2919 23.5385C70.2052 23.4518 70.1185 23.3651 69.945 23.3651C69.7716 23.3651 69.6849 23.3651 69.5982 23.4518C69.5115 23.5385 69.4247 23.6252 69.4247 23.7987C69.4247 23.8854 69.4247 23.9721 69.5115 24.0588C69.5982 24.1455 69.6849 24.2322 69.8583 24.2322L70.552 24.4924C70.8989 24.5791 71.159 24.7525 71.2457 24.926C71.4192 25.0994 71.4192 25.3595 71.4192 25.7064C71.4192 25.9665 71.4192 26.14 71.3325 26.3134C71.2458 26.4868 71.159 26.5735 70.9856 26.747C70.8122 26.8337 70.7255 26.9204 70.4653 27.0071C70.2052 27.0071 69.945 27.0071 69.7716 27.0071C69.4247 27.0071 69.2513 27.0071 68.9912 26.9204C68.8177 26.8337 68.6443 26.747 68.4709 26.6603C68.3842 26.5735 68.2975 26.4001 68.2107 26.2267C68.124 26.0533 68.124 25.8798 68.124 25.7064V25.533H69.0779V25.7064H69.1646Z" fill="black"/>
<path d="M72.8066 25.3595C72.8066 25.4463 72.8066 25.6197 72.8066 25.7064C72.8066 25.7931 72.8933 25.9665 72.8933 26.0533C72.8933 26.14 72.98 26.2267 73.0668 26.3134C73.1535 26.4001 73.2402 26.4001 73.3269 26.4001C73.5003 26.4001 73.6738 26.3134 73.7605 26.2267C73.8472 26.14 73.9339 25.8798 73.9339 25.6197H74.8878C74.8878 26.14 74.7143 26.4868 74.4542 26.747C74.194 27.0071 73.8472 27.0071 73.3269 27.0071C72.8933 27.0071 72.6332 26.9204 72.373 26.8337C72.1129 26.6603 72.0262 26.4868 71.8528 26.3134C71.766 26.14 71.6793 25.8798 71.6793 25.6197C71.6793 25.3595 71.6793 25.0994 71.6793 24.8393C71.6793 24.5791 71.6793 24.319 71.766 24.0588C71.766 23.7987 71.8528 23.5385 72.0262 23.3651C72.1129 23.1917 72.2863 23.0182 72.5465 22.8448C72.8066 22.6714 73.0668 22.6714 73.4136 22.6714C73.7605 22.6714 74.0206 22.7581 74.194 22.8448C74.3675 22.9315 74.5409 23.105 74.6276 23.2784C74.7143 23.4518 74.801 23.712 74.8878 23.9721C74.9745 24.2322 74.9745 24.4924 74.9745 24.8393V25.0994H72.8066V25.3595ZM73.8472 23.8854C73.8472 23.7987 73.8472 23.6252 73.7605 23.5385C73.7605 23.4518 73.6738 23.3651 73.587 23.3651C73.5003 23.2784 73.4136 23.2784 73.3269 23.2784C73.2402 23.2784 73.1535 23.2784 73.0668 23.3651C72.98 23.4518 72.98 23.4518 72.8933 23.5385C72.8933 23.6252 72.8066 23.712 72.8066 23.7987C72.8066 23.8854 72.8066 23.9721 72.8066 24.0588V24.2322H73.9339C73.9339 24.1455 73.8472 24.0588 73.8472 23.8854Z" fill="black"/>
<path d="M76.622 21.2839V22.2378H75.5815V21.2839H76.622ZM76.622 22.6714V26.9204H75.5815V22.6714H76.622Z" fill="black"/>
<path d="M78.7032 21.544V22.6713H79.3102V23.4517H78.7032V25.7063C78.7032 25.8797 78.7032 25.9664 78.7899 26.0531C78.8766 26.1399 78.9634 26.1399 79.1368 26.1399H79.2235H79.3102V26.9203C79.2235 26.9203 79.0501 26.9203 78.9634 26.9203C78.8766 26.9203 78.7032 26.9203 78.6165 26.9203C78.4431 26.9203 78.2696 26.9203 78.0962 26.9203C77.9228 26.9203 77.8361 26.8336 77.7493 26.7469C77.6626 26.6601 77.6626 26.5734 77.5759 26.4C77.5759 26.2266 77.5759 26.0531 77.5759 25.8797V23.4517H77.0556V22.6713H77.5759V21.4573H78.7032V21.544Z" fill="black"/>
<path d="M82.692 23.0182H81.5648V22.2378H81.6515C81.9983 22.2378 82.3452 22.151 82.5186 22.0643C82.692 21.8909 82.8655 21.7175 82.9522 21.3706H83.8193V26.9203H82.692V23.0182Z" fill="black"/>
<path d="M85.3802 24.4923C85.5536 24.2322 85.8138 24.0588 86.0739 24.0588C85.9005 24.0588 85.8138 23.972 85.7271 23.8853C85.6403 23.7986 85.5536 23.7119 85.4669 23.6252C85.3802 23.5385 85.3802 23.4518 85.2935 23.2783C85.2935 23.1916 85.2935 23.1049 85.2935 22.9315C85.2935 22.4112 85.4669 21.9776 85.7271 21.7175C85.9872 21.4573 86.4208 21.3706 86.9411 21.3706C87.4614 21.3706 87.8082 21.4573 88.1551 21.7175C88.5019 21.9776 88.5886 22.3245 88.5886 22.9315C88.5886 23.0182 88.5886 23.1049 88.5886 23.2783C88.5886 23.365 88.5019 23.4518 88.4152 23.6252C88.3285 23.7986 88.2418 23.7986 88.1551 23.8853C88.0684 23.972 87.8949 24.0588 87.8082 24.0588C88.1551 24.1455 88.3285 24.3189 88.5019 24.4923C88.6754 24.6658 88.7621 25.0126 88.7621 25.3595C88.7621 25.5329 88.7621 25.7063 88.6754 25.8798C88.6754 26.0532 88.5886 26.2266 88.4152 26.4C88.3285 26.5735 88.0684 26.7469 87.8949 26.8336C87.6348 26.9203 87.3746 27.0071 86.9411 27.0071C86.5075 27.0071 86.2473 26.9203 85.9872 26.8336C85.7271 26.7469 85.5536 26.5735 85.4669 26.4C85.3802 26.2266 85.2935 26.0532 85.2068 25.8798C85.2068 25.7063 85.1201 25.5329 85.1201 25.3595C85.1201 25.0126 85.2068 24.7525 85.3802 24.4923ZM86.2473 25.7063C86.2473 25.793 86.3341 25.9665 86.3341 26.0532C86.4208 26.1399 86.4208 26.2266 86.5075 26.2266C86.5942 26.3133 86.6809 26.3133 86.8543 26.3133C87.0278 26.3133 87.1145 26.3133 87.2012 26.2266C87.2879 26.1399 87.3746 26.1399 87.3746 26.0532C87.4614 25.9665 87.4614 25.8798 87.4614 25.7063C87.4614 25.5329 87.4614 25.4462 87.4614 25.3595C87.4614 25.186 87.4614 25.0993 87.4614 25.0126C87.4614 24.9259 87.3746 24.8392 87.3746 24.7525C87.2879 24.6658 87.2879 24.579 87.2012 24.579C87.1145 24.4056 87.0278 24.4056 86.8543 24.4056C86.6809 24.4056 86.5942 24.4056 86.5075 24.4923C86.4208 24.579 86.3341 24.579 86.3341 24.6658C86.2473 24.7525 86.2473 24.8392 86.2473 24.9259C86.2473 25.0126 86.2473 25.186 86.2473 25.2728C86.2473 25.4462 86.2473 25.6196 86.2473 25.7063ZM86.5075 23.4518C86.5942 23.5385 86.7676 23.6252 86.9411 23.6252C87.1145 23.6252 87.2012 23.5385 87.3746 23.4518C87.4614 23.365 87.5481 23.1049 87.5481 22.8448C87.5481 22.3245 87.3746 22.0643 87.0278 22.0643C86.6809 22.0643 86.5075 22.3245 86.5075 22.8448C86.3341 23.1049 86.4208 23.365 86.5075 23.4518Z" fill="black"/>
<path d="M89.109 24.4923C89.2825 24.2322 89.5426 24.0588 89.8027 24.0588C89.6293 24.0588 89.5426 23.972 89.4559 23.8853C89.3692 23.7986 89.2825 23.7119 89.1957 23.6252C89.109 23.5385 89.109 23.4518 89.0223 23.2783C89.0223 23.1916 89.0223 23.1049 89.0223 22.9315C89.0223 22.4112 89.1957 21.9776 89.4559 21.7175C89.716 21.4573 90.1496 21.3706 90.6699 21.3706C91.1902 21.3706 91.537 21.4573 91.8839 21.7175C92.2307 21.9776 92.3175 22.3245 92.3175 22.9315C92.3175 23.0182 92.3175 23.1049 92.3175 23.2783C92.3175 23.365 92.2307 23.4518 92.144 23.6252C92.0573 23.7986 91.9706 23.7986 91.8839 23.8853C91.7972 23.972 91.6237 24.0588 91.537 24.0588C91.8839 24.1455 92.0573 24.3189 92.2307 24.4923C92.4042 24.6658 92.4909 25.0126 92.4909 25.3595C92.4909 25.5329 92.4909 25.7063 92.4042 25.8798C92.4042 26.0532 92.3175 26.2266 92.144 26.4C92.0573 26.5735 91.7972 26.7469 91.6237 26.8336C91.3636 26.9203 91.1035 27.0071 90.6699 27.0071C90.2363 27.0071 89.9762 26.9203 89.716 26.8336C89.4559 26.7469 89.2825 26.5735 89.1957 26.4C89.109 26.2266 89.0223 26.0532 88.9356 25.8798C88.9356 25.7063 88.8489 25.5329 88.8489 25.3595C88.8489 25.0126 88.9356 24.7525 89.109 24.4923ZM90.0629 25.7063C90.0629 25.793 90.1496 25.9665 90.1496 26.0532C90.2363 26.1399 90.2363 26.2266 90.323 26.2266C90.4097 26.3133 90.4965 26.3133 90.6699 26.3133C90.8433 26.3133 90.93 26.3133 91.0167 26.2266C91.1035 26.1399 91.1902 26.1399 91.1902 26.0532C91.2769 25.9665 91.2769 25.8798 91.2769 25.7063C91.2769 25.5329 91.2769 25.4462 91.2769 25.3595C91.2769 25.186 91.2769 25.0993 91.2769 25.0126C91.2769 24.9259 91.1902 24.8392 91.1902 24.7525C91.1035 24.6658 91.1035 24.579 91.0167 24.579C90.93 24.4923 90.8433 24.4923 90.6699 24.4923C90.4965 24.4923 90.4097 24.4923 90.323 24.579C90.2363 24.6658 90.1496 24.6658 90.1496 24.7525C90.0629 24.8392 90.0629 24.9259 90.0629 25.0126C90.0629 25.0993 90.0629 25.2728 90.0629 25.3595C89.9762 25.4462 89.9762 25.6196 90.0629 25.7063ZM90.2363 23.4518C90.323 23.5385 90.4965 23.6252 90.6699 23.6252C90.8433 23.6252 90.93 23.5385 91.1035 23.4518C91.1902 23.365 91.2769 23.1049 91.2769 22.8448C91.2769 22.3245 91.1035 22.0643 90.7566 22.0643C90.4097 22.0643 90.2363 22.3245 90.2363 22.8448C90.0629 23.1049 90.1496 23.365 90.2363 23.4518Z" fill="black"/>
<path d="M93.8783 26.0532C93.965 26.2266 94.1384 26.3133 94.3985 26.3133C94.572 26.3133 94.6587 26.3133 94.7454 26.2266C94.8321 26.1399 94.9188 26.1399 94.9188 26.0532C95.0055 25.9665 95.0055 25.8798 95.0055 25.793C95.0055 25.7063 95.0055 25.5329 95.0055 25.4462C95.0055 25.3595 95.0055 25.186 95.0055 25.0993C95.0055 25.0126 94.9188 24.9259 94.9188 24.8392C94.8321 24.7525 94.8321 24.6658 94.6587 24.6658C94.572 24.579 94.3985 24.579 94.3118 24.579H93.965V23.7986H94.3118C94.3985 23.7986 94.572 23.7986 94.572 23.7119C94.6587 23.6252 94.7454 23.6252 94.7454 23.5385C94.8321 23.4518 94.8321 23.365 94.8321 23.2783C94.8321 23.1916 94.8321 23.1049 94.8321 22.9315C94.8321 22.6713 94.7454 22.4979 94.6587 22.3245C94.572 22.2378 94.3985 22.151 94.2251 22.151C94.1384 22.151 93.965 22.151 93.965 22.2378C93.965 22.3245 93.7915 22.3245 93.7915 22.4112C93.7915 22.4979 93.7048 22.5846 93.7048 22.6713C93.7048 22.758 93.7048 22.9315 93.7048 23.0182H92.6642C92.6642 22.4979 92.8377 22.0643 93.0978 21.8042C93.358 21.544 93.7915 21.3706 94.3118 21.3706C94.8321 21.3706 95.179 21.4573 95.5258 21.7175C95.786 21.9776 95.9594 22.3245 95.9594 22.758C95.9594 23.1049 95.8727 23.365 95.6993 23.5385C95.5258 23.7119 95.3524 23.8853 95.0922 23.972C95.4391 24.0588 95.6993 24.1455 95.8727 24.4056C96.0461 24.6658 96.1328 24.9259 96.1328 25.2728C96.1328 25.4462 96.1328 25.6196 96.0461 25.8798C95.9594 26.0532 95.8727 26.2266 95.786 26.4C95.6125 26.5735 95.4391 26.6602 95.2657 26.8336C95.0055 26.9203 94.7454 27.0071 94.3118 27.0071C93.7915 27.0071 93.358 26.8336 93.0978 26.5735C92.8377 26.3133 92.6642 25.8798 92.6642 25.3595H93.7048C93.7915 25.6196 93.7915 25.8798 93.8783 26.0532Z" fill="black"/>
</svg>
