<svg width="36" height="38" viewBox="0 0 36 38" fill="none" xmlns="http://www.w3.org/2000/svg">
<path d="M32.1667 37H3.83333C2.22778 37 1 35.752 1 34.12V3.88C1 2.248 2.22778 1 3.83333 1H32.1667C33.7722 1 35 2.248 35 3.88V34.12C35 35.656 33.6778 37 32.1667 37Z" stroke="white" stroke-width="1.75" stroke-miterlimit="10" stroke-linecap="round" stroke-linejoin="round"/>
<path d="M1 31.5H35" stroke="white" stroke-width="1.75" stroke-miterlimit="10" stroke-linecap="round" stroke-linejoin="round"/>
<path d="M10.9167 26.9722C13.0552 26.9722 14.7889 25.2386 14.7889 23.1C14.7889 20.9614 13.0552 19.2278 10.9167 19.2278C8.77809 19.2278 7.04443 20.9614 7.04443 23.1C7.04443 25.2386 8.77809 26.9722 10.9167 26.9722Z" stroke="white" stroke-width="1.75" stroke-miterlimit="10" stroke-linecap="round" stroke-linejoin="round"/>
<path d="M10.9167 13.5611C13.264 13.5611 15.1667 11.6583 15.1667 9.3111C15.1667 6.96389 13.264 5.0611 10.9167 5.0611C8.56954 5.0611 6.66675 6.96389 6.66675 9.3111C6.66675 11.6583 8.56954 13.5611 10.9167 13.5611Z" stroke="white" stroke-width="1.75" stroke-miterlimit="10" stroke-linecap="round" stroke-linejoin="round"/>
<path d="M25.0833 27.35C27.4305 27.35 29.3333 25.4472 29.3333 23.1C29.3333 20.7528 27.4305 18.85 25.0833 18.85C22.736 18.85 20.8333 20.7528 20.8333 23.1C20.8333 25.4472 22.736 27.35 25.0833 27.35Z" stroke="white" stroke-width="1.75" stroke-miterlimit="10" stroke-linecap="round" stroke-linejoin="round"/>
<path d="M25.0834 24.5167C25.8658 24.5167 26.5001 23.8824 26.5001 23.1C26.5001 22.3176 25.8658 21.6833 25.0834 21.6833C24.301 21.6833 23.6667 22.3176 23.6667 23.1C23.6667 23.8824 24.301 24.5167 25.0834 24.5167Z" fill="white"/>
<path d="M10.9167 10.7278C11.6991 10.7278 12.3333 10.0935 12.3333 9.31114C12.3333 8.52873 11.6991 7.89447 10.9167 7.89447C10.1343 7.89447 9.5 8.52873 9.5 9.31114C9.5 10.0935 10.1343 10.7278 10.9167 10.7278Z" fill="white"/>
<path d="M25.0834 13.1833C27.222 13.1833 28.9556 11.4497 28.9556 9.31113C28.9556 7.17256 27.222 5.4389 25.0834 5.4389C22.9448 5.4389 21.2112 7.17256 21.2112 9.31113C21.2112 11.4497 22.9448 13.1833 25.0834 13.1833Z" stroke="white" stroke-width="1.75" stroke-miterlimit="10" stroke-linecap="round" stroke-linejoin="round"/>
</svg>
