<svg width="36" height="38" viewBox="0 0 36 38" fill="none" xmlns="http://www.w3.org/2000/svg">
<path d="M32.1667 37H3.83333C2.22778 37 1 35.752 1 34.12V3.88C1 2.248 2.22778 1 3.83333 1H32.1667C33.7722 1 35 2.248 35 3.88V34.12C35 35.656 33.7722 37 32.1667 37Z" stroke="white" stroke-width="1.75" stroke-miterlimit="10" stroke-linecap="round" stroke-linejoin="round"/>
<path d="M1 10H35" stroke="white" stroke-width="1.75" stroke-miterlimit="10" stroke-linecap="round" stroke-linejoin="round"/>
<path d="M11.9556 17.0555C13.0889 16.4889 14.3167 16.1111 15.6389 16.1111C19.9834 16.1111 23.4778 19.6055 23.4778 23.8555C23.4778 28.2 19.9834 31.6944 15.6389 31.6944C11.2945 31.6944 7.80005 28.2 7.80005 23.8555C7.80005 23.1944 7.81117 22.6611 8.00006 22" stroke="white" stroke-width="1.75" stroke-miterlimit="10" stroke-linecap="round" stroke-linejoin="round"/>
<path d="M13.0888 19.5111C13.0888 21.2111 11.6721 22.6278 9.97214 22.6278C8.27214 22.6278 6.85547 21.2111 6.85547 19.5111C6.85547 17.8111 9.97214 14.6945 9.97214 14.6945C9.97214 14.6945 13.0888 17.8111 13.0888 19.5111Z" stroke="white" stroke-width="1.75" stroke-miterlimit="10" stroke-linecap="round" stroke-linejoin="round"/>
<path d="M18.4722 31.1278C19.3222 31.5055 20.3611 31.6944 21.3055 31.6944C25.6499 31.6944 29.1444 28.2 29.1444 23.8555C29.1444 19.5111 25.6499 16.1111 21.3055 16.1111C20.2666 16.1111 19.3222 16.3 18.4722 16.6778" stroke="white" stroke-width="1.75" stroke-miterlimit="10" stroke-linecap="round" stroke-linejoin="round"/>
<path d="M19 5.5H23" stroke="white" stroke-width="1.75" stroke-miterlimit="10" stroke-linecap="round" stroke-linejoin="round"/>
<path d="M28.75 7.25C29.7165 7.25 30.5 6.4665 30.5 5.5C30.5 4.5335 29.7165 3.75 28.75 3.75C27.7835 3.75 27 4.5335 27 5.5C27 6.4665 27.7835 7.25 28.75 7.25Z" fill="white"/>
</svg>
