<svg width="108" height="26" viewBox="0 0 108 26" fill="none" xmlns="http://www.w3.org/2000/svg">
<path d="M0 25.0621C24.7816 25.0621 24.7816 25.0621 24.7816 25.0621C24.7816 0.455571 24.7816 0.455566 24.7816 0.455566C-2.22696e-06 0.455566 0 0.455566 0 0.455566V25.0621ZM15.8789 2.32368C20.2573 3.75395 23.4389 7.86962 23.4389 12.7442C23.4389 17.5312 20.3449 21.6469 15.8789 23.1648V2.32368ZM12.4054 1.76908C13.1935 1.76908 14.04 1.85665 14.7405 2.00259C14.7405 7.57773 9.31135 12.1604 3.70703 12.1604C1.37189 12.1604 1.37189 12.1604 1.37189 12.1604C1.72216 6.43935 6.48 1.76908 12.4054 1.76908ZM3.67784 13.328C9.28216 13.328 14.7113 17.9107 14.7113 23.4858C14.0108 23.6318 13.1351 23.7485 12.3762 23.7485C6.48 23.7485 1.54703 19.0491 1.31351 13.328H3.67784Z" fill="#002D62"/>
<path d="M33.1005 14.904C33.1005 13.357 33.1005 13.357 33.1005 13.357C38.267 13.357 38.267 13.357 38.267 13.357C38.267 11.3722 38.267 11.3722 38.267 11.3722C33.1005 11.3722 33.1005 11.3722 33.1005 11.3722C33.1005 8.48242 33.1005 8.48242 33.1005 8.48242C38.5881 8.48242 38.5881 8.48242 38.5881 8.48242C38.5881 6.49755 38.5881 6.49756 38.5881 6.49756C30.9989 6.49756 30.9989 6.49756 30.9989 6.49756C30.9989 10.73 30.9989 10.73 30.9989 10.73C30.9989 14.7873 30.9989 14.7873 30.9989 14.7873C30.9989 16.8889 31.9038 18.3192 34.0054 18.6111C34.0638 18.6111 34.093 18.6403 34.1221 18.6403C34.1513 18.6403 34.1513 18.6403 34.1513 18.6403C34.3557 18.6695 34.5892 18.6694 34.8227 18.6694C38.734 18.6694 38.734 18.6694 38.734 18.6694C38.734 16.6846 38.734 16.6846 38.734 16.6846C34.8519 16.6846 34.8519 16.6846 34.8519 16.6846C34.1805 16.743 33.1005 16.3927 33.1005 14.904Z" fill="#002D62"/>
<path d="M40.2227 12.2771V18.6987H42.3535V12.2479V6.52686H40.2227V12.2771Z" fill="#002D62"/>
<path d="M48.3956 9.62109C45.7394 9.62109 43.7253 11.46 43.7253 14.2914C43.7253 14.3497 43.7253 14.3497 43.7253 14.3497C43.7253 17.1227 45.6518 18.9033 48.454 18.9033C49.7967 18.9033 51.0518 18.5238 52.1902 17.327C50.9059 16.1011 50.9059 16.1011 50.9059 16.1011C50.2345 16.7724 49.5924 17.1227 48.4832 17.1227C46.907 17.1227 45.8561 16.2179 45.7978 14.8168C52.7448 14.8168 52.7448 14.8168 52.7448 14.8168C52.774 14.4665 52.774 14.087 52.774 14.087C52.8032 11.606 51.0518 9.62109 48.3956 9.62109ZM45.8853 13.3281C45.9729 12.2481 47.0821 11.4016 48.3956 11.4016C49.6507 11.4016 50.6432 12.2773 50.6432 13.3281H45.8853Z" fill="#002D62"/>
<path d="M58.7286 11.4891C59.6918 11.4891 60.3924 11.8394 60.9761 12.4523C62.2897 11.1096 62.2897 11.1096 62.2897 11.1096C61.268 10.0296 60.0421 9.5918 58.7286 9.5918C56.0432 9.5918 53.8832 11.5767 53.8832 14.2913C53.8832 17.0059 56.0432 18.9907 58.7286 18.9907C60.0421 18.9907 61.268 18.5529 62.2897 17.4729C60.9761 16.1302 60.9761 16.1302 60.9761 16.1302C60.3632 16.7431 59.6626 17.0934 58.7286 17.0934C57.1816 17.0934 55.9848 15.9258 55.9848 14.3204C55.9848 12.6858 57.1816 11.4891 58.7286 11.4891Z" fill="#002D62"/>
<path d="M65.7341 14.9043C65.7341 11.8102 65.7341 11.8102 65.7341 11.8102C67.6606 11.8102 67.6606 11.8102 67.6606 11.8102C67.6606 9.91291 67.6606 9.91291 67.6606 9.91291C65.7341 9.91291 65.7341 9.91291 65.7341 9.91291C65.7341 6.55615 65.7341 6.55615 65.7341 6.55615C63.6324 6.55615 63.6324 6.55615 63.6324 6.55615C63.6324 10.9345 63.6324 10.9345 63.6324 10.9345C63.6324 15.0794 63.6324 15.0794 63.6324 15.0794C63.6908 17.0643 64.5957 18.407 66.6389 18.6989C66.6973 18.6989 66.7265 18.728 66.7557 18.728C66.7849 18.728 66.7849 18.728 66.7849 18.728C66.9892 18.7572 67.2227 18.7572 67.4562 18.7572C67.6897 18.7572 67.6897 18.7572 67.6897 18.7572C67.6897 16.7724 67.6897 16.7724 67.6897 16.7724C67.4854 16.7724 67.4854 16.7724 67.4854 16.7724C66.8141 16.7432 65.7341 16.3929 65.7341 14.9043Z" fill="#002D62"/>
<path d="M71.5427 11.1971C71.5427 9.88363 71.5427 9.88363 71.5427 9.88363C69.441 9.88363 69.441 9.88363 69.441 9.88363C69.441 14.2036 69.441 14.2036 69.441 14.2036C69.441 18.6988 69.441 18.6988 69.441 18.6988C71.5427 18.6988 71.5427 18.6988 71.5427 18.6988C71.5427 14.0577 71.5427 14.0577 71.5427 14.0577C71.5427 12.5982 72.4767 11.6934 73.9362 11.6934C74.2864 11.6934 74.5783 11.7225 74.8118 11.7809C74.8118 9.76687 74.8118 9.76687 74.8118 9.76687C74.7243 9.73768 74.4032 9.7085 74.1697 9.7085C72.9146 9.7085 71.9513 10.2923 71.5427 11.1971Z" fill="#002D62"/>
<path d="M79.9783 9.62109C77.2929 9.62109 75.1329 11.6351 75.1329 14.2914C75.1329 16.9184 77.2637 18.9616 79.9783 18.9616C82.6637 18.9616 84.8237 16.9184 84.8237 14.2914C84.8237 11.6643 82.6346 9.62109 79.9783 9.62109ZM79.9783 17.0643C78.4021 17.0643 77.2346 15.8676 77.2346 14.2914C77.2346 12.7151 78.4021 11.5184 79.9783 11.5184C81.5254 11.5184 82.7221 12.7151 82.7221 14.2914C82.7221 15.8676 81.5254 17.0643 79.9783 17.0643Z" fill="#002D62"/>
<path d="M86.1082 12.0728V18.6987H88.239V12.1604V6.52686H86.1082V12.0728Z" fill="#002D62"/>
<path d="M95.8573 15.0211C95.8573 16.4222 95.04 17.006 93.9308 17.006C92.8216 17.006 92.0044 16.4222 92.0044 15.0211C92.0044 9.88379 92.0044 9.88379 92.0044 9.88379C89.8735 9.88379 89.8735 9.88379 89.8735 9.88379C89.8735 12.4232 89.8735 12.4232 89.8735 12.4232C89.8735 15.1962 89.8735 15.1962 89.8735 15.1962C89.8735 17.7065 91.7125 18.9324 93.9308 18.9324C96.1492 18.9324 98.0173 17.7065 98.0173 15.167C98.0173 12.4524 98.0173 12.4524 98.0173 12.4524C98.0173 9.91298 98.0173 9.91298 98.0173 9.91298C95.8865 9.91298 95.8865 9.91298 95.8865 9.91298V15.0211H95.8573Z" fill="#002D62"/>
<path d="M105.957 15.8968L104.643 14.0287L106.278 11.8103L107.708 9.88379H105.402L103.476 12.54L101.549 9.88379H99.2432L100.557 11.6643L102.308 14.0578L100.469 16.5973L98.9513 18.6989H101.228L103.476 15.6049L105.723 18.6989H108L105.957 15.8968Z" fill="#002D62"/>
</svg>
