<svg width="120" height="8" viewBox="0 0 120 8" fill="none" xmlns="http://www.w3.org/2000/svg">
<path d="M0.0725098 7.87917V0.633301H5.16259V2.23019H1.94885V3.70731H4.90309V5.30419H1.94885V7.87917H0.0725098Z" fill="black"/>
<path d="M10.632 7.87917H8.75562V0.633301H10.632V7.87917Z" fill="black"/>
<path d="M14.2449 5.60365C14.9635 6.10268 15.8218 6.38213 16.7001 6.42206C17.259 6.42206 17.778 6.30229 17.778 5.80326C17.778 5.46392 17.5385 5.3242 17.1592 5.22439L16.0613 4.88505C14.8437 4.52575 14.205 3.94688 14.205 2.78914C14.205 1.41182 15.4226 0.513574 16.9795 0.513574C17.758 0.493613 18.5365 0.693226 19.2152 1.05253V2.78914C18.5764 2.33003 17.8179 2.0905 17.0195 2.07054C16.4606 2.07054 16.0613 2.23023 16.0613 2.62945C16.0613 2.92887 16.2609 3.0686 16.6402 3.1684L17.7381 3.50774C19.0555 3.94688 19.6543 4.54571 19.6543 5.62361C19.6543 7.18058 18.2571 7.97902 16.7001 7.97902C15.8418 7.97902 15.0034 7.77941 14.2449 7.36023V5.60365V5.60365Z" fill="black"/>
<path d="M29.7547 0.65332V7.89919H27.8784V5.00483H25.1038V7.89919H23.2274V0.673283H25.1038V3.42791H27.8784V0.673283H29.7547V0.65332Z" fill="black"/>
<path d="M38.9168 0.65332V2.25021H35.6232V3.38799H38.6374V4.98487H35.6232V6.28234H38.9168V7.87923H33.7668V0.65332H38.9168Z" fill="black"/>
<path d="M42.8092 0.65332H45.8832C47.5001 0.65332 48.7177 1.53161 48.7177 3.14846C48.7576 4.18643 48.1188 5.10464 47.1408 5.42402L49.057 7.87923H46.8813L45.1646 5.64359H44.6855V7.87923H42.8092V0.65332V0.65332ZM44.6855 4.04671H45.7634C46.4421 4.04671 46.8813 3.68741 46.8813 3.14846C46.8813 2.58955 46.4421 2.25021 45.7634 2.25021H44.6855V4.04671Z" fill="black"/>
<path d="M60.3151 7.28034C59.7562 7.75941 59.0376 8.0189 58.319 7.99894C56.782 7.99894 55.5244 7.00089 55.5244 5.34412C55.5444 4.38599 56.0234 3.48774 56.8219 2.94879L56.1232 2.05054V0.633301H60.9738V2.23019H58.3988L60.355 4.72532L60.8141 4.04665H62.7703L61.373 6.04276L62.8102 7.85922H60.8341L60.3151 7.28034ZM59.317 6.06272L57.8 4.18637C57.4207 4.44587 57.1812 4.88501 57.1812 5.34412C57.1812 5.94295 57.6603 6.44198 58.2591 6.46194C58.279 6.46194 58.299 6.46194 58.299 6.46194C58.6783 6.46194 59.0376 6.32221 59.317 6.06272Z" fill="black"/>
<path d="M71.5132 7.87917H69.6169V0.633301H72.6909C74.3078 0.633301 75.5254 1.51159 75.5254 3.12844C75.5254 4.74528 74.3078 5.62357 72.6909 5.62357H71.4933L71.5132 7.87917ZM71.5132 4.04665H72.5911C73.2698 4.04665 73.709 3.68735 73.709 3.1484C73.709 2.60945 73.2698 2.25015 72.5911 2.25015H71.5132V4.04665Z" fill="black"/>
<path d="M82.6715 6.54184H79.7771L79.2581 7.87923H77.4017L80.356 0.65332H82.1525L85.0868 7.89919H83.1904L82.6715 6.54184ZM80.3959 4.94495H82.0726L81.2143 2.82908L80.3959 4.94495Z" fill="black"/>
<path d="M89.059 7.87917V5.06466L86.3243 0.633301H88.4402L90.0571 3.42785L91.6739 0.633301H93.67L90.9354 5.06466V7.85922L89.059 7.87917Z" fill="black"/>
<path d="M98.2412 3.72733L100.537 0.65332H102.732L100.058 4.12655L102.832 7.89919H100.597L98.2212 4.6655V7.89919H96.3448V0.673283H98.2212L98.2412 3.72733Z" fill="black"/>
<path d="M110.817 0.65332V2.25021H107.523V3.38799H110.537V4.98487H107.523V6.28234H110.817V7.87923H105.667V0.65332H110.817Z" fill="black"/>
<path d="M114.689 0.65332H116.565V6.30231H119.839V7.89919H114.689V0.65332Z" fill="black"/>
</svg>
