<svg width="106" height="13" viewBox="0 0 106 13" fill="none" xmlns="http://www.w3.org/2000/svg">
<path fill-rule="evenodd" clip-rule="evenodd" d="M61.3655 12.9805H73.4704L67.4187 0.855201L61.3655 12.9805ZM104.402 12.0687C104.516 12.0687 104.583 12.012 104.583 11.9227C104.583 11.8237 104.516 11.7723 104.402 11.7723H104.174V12.0687H104.402ZM104 11.6119H104.409C104.53 11.6119 104.625 11.6489 104.688 11.7131C104.736 11.7597 104.762 11.8266 104.762 11.908C104.762 12.0639 104.676 12.1578 104.55 12.1944L104.796 12.5483H104.588L104.366 12.2244H104.174V12.5483H104V11.6119ZM105.137 12.1058C105.137 11.659 104.801 11.3005 104.356 11.3005C103.908 11.3005 103.569 11.6634 103.569 12.1058C103.569 12.5531 103.906 12.9109 104.351 12.9109C104.799 12.9109 105.137 12.5483 105.137 12.1058V12.1058ZM103.477 12.1105C103.477 11.6189 103.865 11.2114 104.356 11.2114C104.848 11.2114 105.23 11.6139 105.23 12.1009C105.23 12.5928 104.842 13 104.351 13C103.86 13 103.477 12.5973 103.477 12.1105ZM83.9116 7.09386V3.17607H86.8353C88.3217 3.17607 89.2045 3.85883 89.2045 5.11002C89.2045 6.32693 88.2887 7.09386 86.852 7.09386H83.9116ZM88.5179 8.56195C90.1178 8.09497 91.2455 6.94468 91.2455 5.02699C91.2455 3.97504 90.9016 3.10865 90.2988 2.4746C89.5629 1.74212 88.4352 1.30902 86.9993 1.30902H81.9022V12.9805H83.9116V8.91247H86.3943L89.2357 12.9805H91.6053L88.5179 8.56195ZM58.4475 7.17743C58.4475 9.46106 56.8785 11.1108 54.4799 11.1108H52.2253V3.17607H54.4799C56.8785 3.17607 58.4475 4.85982 58.4475 7.14374V7.17743ZM54.4799 1.30902H50.2138V12.9805H54.4799C58.0721 12.9805 60.557 10.4292 60.557 7.14374C60.557 3.82542 58.0721 1.30902 54.4799 1.30902V1.30902ZM44.1348 7.13521V12.9805H46.145V1.30902H44.1348V7.13521ZM24.7098 6.94069V12.9805H26.719V1.30902H24.7098V6.94069ZM14.0652 7.09386V3.17607H16.9902C18.476 3.17607 19.3581 3.85883 19.3581 5.11002C19.3581 6.32693 18.4435 7.09386 17.0061 7.09386H14.0652ZM18.6722 8.56195C20.2722 8.09497 21.4003 6.94468 21.4003 5.02699C21.4003 3.97504 21.0569 3.10865 20.4529 2.4746C19.7178 1.74212 18.5898 1.30902 17.1541 1.30902H12.057V12.9805H14.0652V8.91247H16.549L19.3909 12.9805H21.7599L18.6722 8.56195ZM0.77063 12.9805H2.77911V8.22786H9.27847V6.36236H2.77911V3.17607H9.28158V1.30902H0.77063V12.9805ZM96.5925 11.1461V8.01038H103.06V6.17648H96.5925V3.14165H103.06V1.30902H94.5834V12.9805H103.063V11.1461H96.5925ZM35.6702 8.04411H38.5916V10.2291C37.8916 10.7625 36.9108 11.1118 35.8331 11.1118C33.4975 11.1118 31.9455 9.34532 31.9455 6.94468C31.9455 4.67579 33.5455 2.79241 35.6525 2.79241C37.1071 2.79241 37.9714 3.27596 38.8539 4.04247L40.128 2.49063C38.954 1.47448 37.7255 0.908046 35.7349 0.908046C32.2878 0.908046 29.8374 3.6765 29.8374 6.94468C29.8374 10.3783 32.1908 12.9805 35.7664 12.9805C37.7922 12.9805 39.4088 12.1462 40.5368 11.1617V6.25837H35.6702V8.04411ZM75.8156 7.13521V12.9805H77.825V1.30902H75.8156V7.13521" fill="#133A73"/>
<path fill-rule="evenodd" clip-rule="evenodd" d="M64.4133 11.1072L67.406 4.96459L70.4226 11.1072H64.4133Z" fill="#ED114C"/>
</svg>
