<svg width="90" height="36" viewBox="0 0 90 36" fill="none" xmlns="http://www.w3.org/2000/svg">
<path d="M9.25916 21.5052L16.1872 0.333496H22.6353L15.7073 21.5052H9.25916Z" fill="#005D9C"/>
<path d="M85.3113 7.54235C85.2221 7.46609 85.09 7.4719 85.0075 7.5532C84.9249 7.63557 84.9188 7.76761 84.9941 7.85731C86.6905 9.87471 87.551 11.9858 87.551 14.1267C87.551 24.647 66.9787 33.2066 41.6928 33.2066C24.2182 33.2066 7.99623 28.9584 0.370118 22.3837C0.281389 22.3081 0.14822 22.3122 0.0661878 22.3946C-0.0169099 22.478 -0.022541 22.6096 0.0537079 22.6993C6.57718 30.4562 24.1137 35.6668 43.6944 35.6668C62.4136 35.6668 79.1754 30.9783 86.4013 23.7241C88.7889 21.3261 90.0001 18.7726 90.0001 16.1392C90.0002 13.1171 88.4235 10.2227 85.3113 7.54235Z" fill="#005D9C"/>
<path d="M69.9102 15.511C69.4801 16.3974 70.4406 16.6187 70.4406 16.6187C71.2548 16.6187 71.4435 16.1382 71.4848 14.9956C71.5188 14.0921 71.4353 13.2617 71.4353 13.2617C71.4353 13.2617 71.3196 12.8555 71.1206 13.2977C70.9213 13.7409 69.9102 15.511 69.9102 15.511ZM56.4515 14.8481C56.1182 15.8443 56.1182 16.6375 56.7332 16.6375C57.5455 16.6375 57.8438 15.8812 57.8438 15.8812L60.7614 6.97305H66.7129L64.1087 14.9216C63.8273 15.7882 63.7605 16.6188 64.3084 16.6376C64.9885 16.6602 65.6189 16.0476 65.6189 16.0476C68.1872 13.4831 70.7212 6.97321 70.7212 6.97321H77.9343C77.3208 8.94537 77.3367 11.5834 77.3367 11.5834C77.3367 13.6862 77.7516 13.7053 77.7691 15.716C77.8078 20.363 75.4474 22.0964 71.1373 22.0964C66.8273 22.0964 65.8831 20.0677 65.8831 20.0677C64.7233 22.3721 60.4792 22.0964 60.4792 22.0964C57.1314 22.0964 56.7165 20.3066 56.7165 20.3066C55.0753 22.3357 52.2738 22.0964 52.2738 22.0964C47.8802 22.0964 49.4735 17.9644 49.4735 17.9644L54.9419 1.21826H60.8936L56.4515 14.8481Z" fill="#005D9C"/>
<path d="M65.0719 6.29151C67.0203 5.91328 68.599 4.45338 68.599 3.03351C68.599 1.61136 67.0203 0.764269 65.0719 1.14434C63.1247 1.52303 61.546 2.98171 61.546 4.40386C61.546 5.82632 63.1247 6.67097 65.0719 6.29151Z" fill="#005D9C"/>
<path d="M45.8757 6.97297C45.5695 8.47123 45.3582 8.42798 45.3582 8.42798C44.9651 8.60159 44.7938 7.95149 44.7938 7.95149C44.477 6.93599 42.7919 6.97297 42.7919 6.97297C42.7635 6.97297 38.7905 6.63111 36.7257 9.62901C35.2011 11.8411 34.6444 13.8175 34.5041 14.2387C34.2729 14.9406 34.1512 15.1961 33.6765 15.1977C33.3731 15.1992 33.3442 14.7189 33.4772 14.0922L34.7032 10.33C34.7032 10.33 36.0956 6.97297 32.2504 6.97297C32.2504 6.97297 29.3653 6.76987 27.6752 8.37389C27.6752 8.37389 27.1128 8.89027 26.9446 8.48529C26.9446 8.48529 26.813 8.37389 27.2604 6.97312H21.9066L17.1492 21.5052H23.0999L25.4711 14.2581C25.4711 14.2581 26.0181 12.1371 27.344 12.1371C27.344 12.1371 27.94 12.2843 27.7744 12.8754L26.4809 16.8593C26.4809 16.8593 24.5592 22.0963 29.2005 22.0963C29.2005 22.0963 31.3551 22.3176 33.7748 20.0299C33.7748 20.0299 34.4857 22.1741 37.3708 22.1741C37.3708 22.1741 39.6574 22.3748 40.8492 21.1016C40.8492 21.1016 41.0752 20.9172 41.2846 21.0147C41.4213 21.075 41.298 21.3261 41.1989 21.4505C40.2517 22.6382 38.8865 23.2735 37.7782 23.2735C36.8815 23.2735 34.4592 23.3469 33.4053 22.2959L31.2806 26.7694L31.8946 26.9933C33.6734 27.6936 35.3606 28.0434 37.4017 28.0434C42.005 28.0434 45.8991 25.4702 47.543 20.3247L51.9945 6.97328L45.8757 6.97297ZM43.06 14.6642C42.351 15.9381 41.2336 16.5929 40.5649 16.123C39.8962 15.6517 39.9281 14.2383 40.6381 12.9623C41.347 11.69 42.4646 11.0362 43.1332 11.5061C43.8019 11.9756 43.7699 13.3902 43.06 14.6642Z" fill="#005D9C"/>
<path d="M16.8356 27.5423L18.2007 23.6516H19.1103L18.5861 25.1438H19.2156L19.7408 23.6516H20.6509L19.2847 27.5423H18.3767L18.9442 25.9233H18.3132L17.7452 27.5423H16.8356Z" fill="#005D9C"/>
<path d="M22.2533 24.7818C22.338 24.5414 22.4163 24.2567 22.1171 24.2567C21.8283 24.2567 21.6921 24.5411 21.6074 24.7818L21.0471 26.3796C20.9687 26.6016 20.8886 26.9348 21.1833 26.9348C21.4779 26.9348 21.6146 26.6016 21.693 26.3796L22.2533 24.7818ZM22.629 26.3009C22.3224 27.179 21.8572 27.6353 20.9361 27.6353C20.0182 27.6353 19.8574 27.179 20.1659 26.3009L20.7209 24.7182C20.9809 23.9717 21.5712 23.5566 22.3678 23.5566C23.1644 23.5566 23.4471 23.9716 23.1845 24.7182L22.629 26.3009Z" fill="#005D9C"/>
<path d="M22.6765 27.5423L24.0406 23.6516H25.3233L24.9868 25.9487H24.9972L26.2896 23.6516H27.5609L26.1963 27.5423H25.3274L26.4923 24.4909H26.4804L24.7696 27.5423H24.0912L24.538 24.4909H24.5266L23.5396 27.5423H22.6765Z" fill="#005D9C"/>
<path d="M26.7061 27.5423L28.0721 23.6516H30.1566L29.8831 24.4287H28.71L28.4581 25.1438H29.5947L29.3229 25.9233H28.1852L27.8901 26.7637H29.1247L28.8533 27.5423H26.7061Z" fill="#005D9C"/>
<path d="M48.7774 24.3543H48.768L47.8908 26.0984H48.4192L48.7774 24.3543ZM46.2637 27.5423L48.4759 23.6516H49.5728L49.0506 27.5423H48.1291L48.2649 26.7849H47.5544L47.1788 27.5423H46.2637Z" fill="#005D9C"/>
<path d="M50.9734 25.3255C51.1478 25.3198 51.3362 25.343 51.5219 25.228C51.6499 25.1233 51.7263 24.9669 51.773 24.8322C51.8269 24.6825 51.8905 24.4533 51.7616 24.3821C51.6832 24.3511 51.5607 24.3511 51.4146 24.3511H51.3169L50.9734 25.3255ZM49.2885 27.5423L50.6532 23.6516H51.7327C52.0847 23.6516 52.5802 23.6803 52.7329 23.9719C52.8609 24.2108 52.7999 24.5021 52.6886 24.8173C52.5414 25.237 52.278 25.71 51.7966 25.9013C51.4266 26.0575 51.0749 26.0112 50.7296 26.0275L50.1987 27.5423H49.2885Z" fill="#005D9C"/>
<path d="M53.772 25.3255C53.9453 25.3198 54.133 25.343 54.3178 25.228C54.4468 25.1233 54.5221 24.9669 54.5684 24.8322C54.6221 24.6825 54.688 24.4533 54.5559 24.3821C54.4806 24.3511 54.356 24.3511 54.2112 24.3511H54.113L53.772 25.3255ZM52.0833 27.5423L53.4496 23.6516H54.5296C54.8815 23.6516 55.3778 23.6803 55.5274 23.9719C55.6566 24.2108 55.596 24.5021 55.4848 24.8173C55.3376 25.237 55.0742 25.71 54.5934 25.9013C54.2223 26.0575 53.8715 26.0112 53.5257 26.0275L52.9944 27.5423H52.0833Z" fill="#005D9C"/>
<path d="M54.7965 27.5423L56.1627 23.6516H57.0716L55.981 26.7637H57.0913L56.8195 27.5423H54.7965Z" fill="#005D9C"/>
<path d="M57.0863 27.5423L58.4519 23.6516H59.3625L57.9973 27.5423H57.0863Z" fill="#005D9C"/>
<path d="M60.8453 24.3543H60.8349L59.96 26.0984H60.4867L60.8453 24.3543ZM58.3336 27.5423L60.5465 23.6516H61.6406L61.1178 27.5423H60.198L60.3342 26.7849H59.6198L59.2469 27.5423H58.3336Z" fill="#005D9C"/>
<path d="M62.9637 25.3638L62.9482 25.3728L62.2703 27.5423H61.4067L62.7728 23.6516H63.7078L63.6499 25.8257H63.6644L64.3381 23.6516H65.2023L63.8377 27.5423H62.9075L62.9637 25.3638Z" fill="#005D9C"/>
<path d="M66.7258 25.0102L66.8135 24.7615C66.9292 24.4287 66.8698 24.2572 66.7006 24.2572C66.4181 24.2522 66.2945 24.408 66.2076 24.6617L65.5262 26.5876C65.4494 26.8046 65.4917 26.9349 65.73 26.9349C66.0402 26.9349 66.1784 26.6143 66.2615 26.375L66.3863 26.0212H67.2955L67.1282 26.4994C66.8929 27.1695 66.3458 27.6358 65.4153 27.6358C64.579 27.6358 64.4102 27.1892 64.6889 26.3944L65.2493 24.7979C65.5465 23.9514 66.0737 23.5571 66.9044 23.5571C67.6813 23.5571 68.0283 23.8894 67.7496 24.6828L67.6363 25.0105L66.7258 25.0102Z" fill="#005D9C"/>
<path d="M67.119 27.5423L68.4833 23.6516H70.568L70.2941 24.4287H69.123L68.8702 25.1438H70.0072L69.7337 25.9233H68.5967L68.3026 26.7637H69.5368L69.2642 27.5423H67.119Z" fill="#005D9C"/>
<path d="M70.7708 26.2401L70.6752 26.5136C70.5953 26.7373 70.599 26.9352 70.8883 26.9352C71.1008 26.9352 71.2606 26.7442 71.3307 26.5457C71.4443 26.2203 71.2198 26.094 71.0326 25.9489C70.8092 25.7873 70.6255 25.6381 70.5238 25.4413C70.4273 25.2429 70.4125 25.0037 70.5322 24.662C70.7891 23.9302 71.3607 23.5571 72.0637 23.5571C72.854 23.5571 73.0729 24.0868 72.7746 24.8176H71.9357C72.0059 24.5881 72.1261 24.2784 71.8325 24.2575C71.6517 24.2419 71.5083 24.3457 71.4246 24.517C71.3184 24.7507 71.3968 24.8694 71.533 24.9943C71.797 25.2134 72.0438 25.3465 72.1874 25.5453C72.3302 25.7409 72.3637 26.0006 72.1985 26.473C71.9354 27.2196 71.3768 27.6355 70.6229 27.6355C69.7893 27.6355 69.6023 27.1692 69.7826 26.6553L69.926 26.2398L70.7708 26.2401Z" fill="#005D9C"/>
<path d="M79.9378 8.26516H80.104V7.89059H80.235C80.3237 7.89059 80.3849 7.90145 80.4198 7.92223C80.4796 7.95738 80.5089 8.02997 80.5089 8.13923V8.2158L80.5123 8.24529C80.5129 8.24927 80.5146 8.25355 80.5146 8.25553C80.5178 8.25905 80.5178 8.26226 80.5178 8.26501H80.6729L80.6677 8.25355C80.664 8.24529 80.6614 8.22925 80.6604 8.20434C80.6581 8.17943 80.6581 8.15589 80.6581 8.13389V8.06451C80.6581 8.01652 80.6407 7.96716 80.6065 7.91581C80.5717 7.86721 80.5178 7.83558 80.443 7.82412C80.5025 7.81464 80.5468 7.79921 80.5797 7.77735C80.6432 7.73793 80.6725 7.67374 80.6725 7.59076C80.6725 7.47171 80.624 7.3901 80.5258 7.34991C80.4718 7.32729 80.3849 7.31568 80.268 7.31568H79.9378V8.26516V8.26516ZM80.412 7.75397C80.3784 7.76696 80.3254 7.77414 80.2548 7.77414H80.1041V7.4306H80.2455C80.3394 7.4306 80.4056 7.44313 80.4478 7.46621C80.4887 7.48852 80.5091 7.53666 80.5091 7.60451C80.5089 7.67833 80.4774 7.72631 80.412 7.75397ZM80.8941 7.18334C80.7261 7.016 80.5231 6.93164 80.2832 6.93164C80.0469 6.93164 79.8448 7.0163 79.6777 7.18334C79.5084 7.35205 79.427 7.5553 79.427 7.79309C79.427 8.03394 79.5084 8.23872 79.6774 8.40591C79.8431 8.57585 80.0463 8.66036 80.2834 8.66036C80.5232 8.66036 80.726 8.57585 80.8944 8.40591C81.0625 8.2375 81.146 8.0318 81.146 7.79309C81.1462 7.55485 81.0626 7.35175 80.8941 7.18334ZM80.8088 7.26632C80.9532 7.41242 81.0249 7.58709 81.0249 7.79325C81.0249 8.00078 80.9532 8.1782 80.8088 8.32323C80.6654 8.46887 80.4899 8.54192 80.2835 8.54192C80.0792 8.54192 79.9038 8.46887 79.7601 8.32323C79.6191 8.1782 79.546 8.00108 79.546 7.79325C79.546 7.58694 79.6191 7.41242 79.7617 7.26632C79.9061 7.12175 80.0816 7.04763 80.2839 7.04763C80.4899 7.04778 80.6637 7.12175 80.8088 7.26632Z" fill="#005D9C"/>
</svg>
