<svg width="105" height="22" viewBox="0 0 105 22" fill="none" xmlns="http://www.w3.org/2000/svg">
<path fill-rule="evenodd" clip-rule="evenodd" d="M104.545 2.43146C104.545 2.67489 104.493 2.90094 104.389 3.07482C104.285 3.26608 104.146 3.40519 103.972 3.50952C103.798 3.61384 103.606 3.66601 103.38 3.66601C103.137 3.66601 102.928 3.61385 102.754 3.49213C102.581 3.3878 102.441 3.23131 102.355 3.04004C102.268 2.84877 102.215 2.64012 102.215 2.41407C102.215 2.17064 102.268 1.94459 102.372 1.77071C102.476 1.57945 102.615 1.44034 102.789 1.33601C102.963 1.23168 103.154 1.17952 103.38 1.17952C103.606 1.17952 103.798 1.23168 103.972 1.33601C104.146 1.44034 104.285 1.57945 104.389 1.77071C104.493 1.96198 104.545 2.18803 104.545 2.43146ZM104.876 2.43146C104.876 2.11848 104.806 1.85766 104.667 1.63161C104.528 1.40557 104.354 1.23169 104.128 1.10997C103.902 0.988254 103.659 0.918701 103.398 0.918701C103.137 0.918701 102.876 0.988254 102.65 1.10997C102.424 1.23169 102.25 1.40557 102.111 1.63161C101.972 1.85766 101.902 2.11848 101.902 2.43146C101.902 2.72706 101.972 2.97049 102.094 3.19653C102.215 3.42258 102.389 3.59646 102.615 3.73556C102.841 3.87467 103.102 3.92683 103.38 3.94422C103.641 3.94422 103.885 3.87467 104.111 3.75295C104.337 3.63124 104.511 3.45736 104.65 3.23131C104.806 2.98788 104.876 2.72706 104.876 2.43146ZM103.102 2.34452V1.85765H103.433C103.52 1.85765 103.606 1.87504 103.676 1.89243C103.746 1.92721 103.798 1.97937 103.798 2.0837C103.798 2.20542 103.763 2.27497 103.676 2.30974C103.606 2.34452 103.52 2.36191 103.398 2.34452H103.102ZM103.102 2.57056H103.363L103.798 3.28347H104.111L103.641 2.55318C103.763 2.53579 103.867 2.50101 103.954 2.43146C104.041 2.36191 104.076 2.25758 104.076 2.10109C104.076 1.92721 104.024 1.80549 103.919 1.73594C103.815 1.66639 103.659 1.61422 103.467 1.63161H102.841V3.30086H103.12V2.57056H103.102Z" fill="black"/>
<path d="M77.5591 0.936035L70.7952 16.6896H73.0904L75.1074 12.047H81.7497L83.8884 16.6896H86.1662L79.1588 0.936035H77.5591ZM78.3068 4.58753L78.3242 4.6223L80.7412 9.94304H76.0812L78.3068 4.58753ZM91.6087 1.04036V16.6896H93.8865V9.87349H95.4341C95.6601 10.3082 95.8861 10.7255 96.1122 11.1602C97.1381 13.0033 98.1814 14.8465 99.2073 16.6896H101.763C100.442 14.2553 99.1029 11.821 97.7814 9.38663C97.8858 9.33447 97.9901 9.2823 98.0944 9.23014C98.3379 9.1432 98.5813 9.02148 98.8073 8.89976C99.016 8.77805 99.2246 8.63894 99.4159 8.46506C99.6072 8.30857 99.7637 8.13469 99.9202 7.94342C100.077 7.75215 100.216 7.5435 100.32 7.31745C100.442 7.09141 100.529 6.84797 100.598 6.60454C100.668 6.36111 100.72 6.10028 100.737 5.85685C100.772 5.57864 100.772 5.30044 100.737 5.02223C100.72 4.74402 100.685 4.4832 100.616 4.22238C100.564 3.97894 100.477 3.7529 100.39 3.52685C100.303 3.30081 100.181 3.09215 100.059 2.90088C99.9376 2.70961 99.7811 2.51835 99.6246 2.34447C99.4507 2.17059 99.2768 2.01409 99.0855 1.87499C98.8769 1.7185 98.6508 1.59678 98.4074 1.49245C98.1814 1.38813 97.9553 1.30118 97.7293 1.24902C97.2076 1.10991 96.6686 1.04036 96.1296 1.04036H91.6087ZM93.9735 3.0226H95.3297C95.7296 3.0226 96.1122 3.05738 96.5121 3.14432C96.686 3.1791 96.8599 3.23126 97.0338 3.30081C97.1729 3.35298 97.312 3.42253 97.4337 3.49208C97.538 3.56163 97.6597 3.63118 97.7467 3.73551C97.851 3.82245 97.9379 3.92678 98.0075 4.03111C98.077 4.13543 98.1466 4.25715 98.1987 4.37887C98.2509 4.51797 98.2857 4.65708 98.3205 4.81357C98.3552 4.98745 98.3552 5.16133 98.3552 5.33521C98.3552 5.52648 98.3379 5.70036 98.3031 5.87424C98.2683 6.03073 98.2335 6.18723 98.164 6.32633C98.0944 6.46544 98.0249 6.60454 97.9379 6.72625C97.851 6.84797 97.7293 6.96969 97.6076 7.07402C97.4858 7.17834 97.3467 7.26529 97.1902 7.35223C97.0337 7.43917 96.8599 7.50872 96.686 7.56088C96.4947 7.63044 96.3034 7.6826 96.1122 7.71738C95.8514 7.76954 95.5905 7.76954 95.3297 7.75215H93.9735V3.0226V3.0226ZM87.3486 16.6896H89.5743V1.04036H87.3486V16.6896ZM62.3794 1.04036V13.1772L51.8422 1.04036H50.0339V16.6896H52.1726V4.60492L62.6054 16.6896H64.5181V1.04036H62.3794ZM45.826 1.04036V13.1772L35.1845 1.04036H33.3761V16.6896H35.4975V4.60492L45.9824 16.6896H47.9647V1.04036H45.826ZM22.4043 1.04036V16.6896H31.4982V14.6552H24.6299V9.82133H30.9766V7.80432H24.6473V3.05738H31.2895V1.04036H22.4043V1.04036ZM18.0399 1.04036V16.2027C18.0399 18.2719 18.0746 19.8195 15.4838 19.8195H14.8926C14.8752 20.5324 14.8578 21.2453 14.8405 21.9408C15.2404 22.0277 15.6229 21.993 16.0228 21.993C19.1875 21.9408 20.3177 19.7499 20.3177 16.8983V1.04036H18.0399ZM66.483 10.0822V12.047H70.8995L71.7515 10.0822H66.483Z" fill="black"/>
<path fill-rule="evenodd" clip-rule="evenodd" d="M13.7624 8.67377C12.4757 10.6038 10.4761 12.0123 8.75464 12.0123H4.51196C6.23338 12.0123 8.233 10.6038 9.51972 8.67377C11.2933 6.0134 12.8061 5.33527 14.5275 5.33527H16.1446V2.13587C16.1446 1.56206 15.6751 1.0752 15.0839 1.0752H1.66032C1.01696 1.0752 0.59965 1.5099 0.547485 2.13587V8.63899H3.97293C3.97293 8.63899 4.82495 9.96049 6.11166 10.8994C5.48569 11.2124 4.80756 11.4559 4.09465 11.5254C3.48607 11.5776 2.75577 11.5428 2.23413 11.195C1.64293 10.7951 1.06913 10.3256 0.547485 9.80399V15.542C0.59965 16.1506 1.03435 16.6027 1.66032 16.6027H15.0839C15.6577 16.6027 16.1446 16.1159 16.1446 15.542V6.10034C15.2752 6.77848 14.3884 7.75221 13.7624 8.67377Z" fill="black"/>
</svg>
