<svg width="93" height="20" viewBox="0 0 93 20" fill="none" xmlns="http://www.w3.org/2000/svg">
<path fill-rule="evenodd" clip-rule="evenodd" d="M37.7894 0C25.0262 2.49539 13.0035 7.01378 3.11935 13.8765L3.16367 13.9788C26.7194 1.94617 51.4322 1.21629 61.5907 1.21629C70.0012 1.21629 79.243 2.36302 79.243 4.80961C79.243 6.80821 75.0447 8.5322 72.6434 9.44325L72.6679 9.52319C75.0724 9.14839 84.1764 7.26867 84.1764 3.21852C84.1764 1.91866 83.0449 0.846679 81.0821 0L90.4887 0.00103766C91.8351 0.00103766 93 1.16074 93 2.5011V17.4999C93 18.8403 91.8351 20 90.4887 20H2.51133C1.16493 20 0 18.8403 0 17.4999V2.50214C0 1.16178 1.16493 0.00207533 2.51133 0.00207533L37.7894 0ZM21.607 8.79435H18.1706L15.7229 17.6681H19.1588L20.1944 13.8578L22.8304 17.6681H26.808L23.3247 13.0065L28.5262 8.79487H24.8786L20.6189 12.2491L21.607 8.79435ZM32.5456 10.8729C30.3096 10.8729 27.5261 11.6687 26.7814 14.3577C26.0733 16.918 28.5314 17.8322 30.6261 17.8322C33.2449 17.8322 35.1513 16.6735 35.7046 15.763H32.445C32.445 15.763 31.9496 16.7903 30.914 16.7903C29.48 16.7903 30.0092 14.7808 30.0092 14.7808H36.2578C37.0807 12.805 36.0451 10.8729 32.5456 10.8729ZM32.312 11.8935C33.4326 11.8935 33.212 13.5085 33.212 13.5085H30.3883C30.3883 13.5085 31.1471 11.8935 32.312 11.8935ZM87.1399 10.8729C84.9044 10.8729 82.1209 11.6687 81.3762 14.3577C80.6676 16.918 83.1257 17.8322 85.2209 17.8322C87.8392 17.8322 89.7461 16.6735 90.2989 15.763H87.0387C87.0387 15.763 86.5439 16.7903 85.5077 16.7903C84.0737 16.7903 84.6035 14.7808 84.6035 14.7808H90.8516C91.6765 12.805 90.6404 10.8729 87.1399 10.8729ZM86.9068 11.8935C88.0279 11.8935 87.8074 13.5085 87.8074 13.5085H84.9831C84.9831 13.5085 85.7419 11.8935 86.9068 11.8935ZM41.7404 11.0317H38.5752L36.7397 17.679H40.0582C40.0582 17.679 40.7992 15.0056 40.9848 14.3312C41.1705 13.6569 41.7524 12.4484 42.9408 12.4484C44.1292 12.4484 43.5029 13.8698 43.3736 14.3312C43.2438 14.7927 42.459 17.679 42.459 17.679H45.7655C45.7655 17.679 46.7073 14.3017 46.8835 13.645C47.0598 12.9888 47.8367 10.8822 44.4124 10.8822C42.3297 10.8822 41.5355 11.7165 41.5355 11.7165L41.7404 11.0317ZM52.6607 11.0297H49.483L47.6475 17.679H50.978C50.978 17.679 51.7398 14.9345 51.9036 14.3312C52.0684 13.728 52.413 12.4027 53.4132 12.4027C54.2371 12.4027 53.9081 13.0771 53.5519 14.3312C53.4043 14.8504 52.6253 17.679 52.6253 17.679H55.9558C55.9558 17.679 56.4934 15.6399 56.7901 14.6152C57.1458 13.3844 57.4482 12.4121 58.3921 12.4121C59.2478 12.4121 58.8687 13.0926 58.2768 15.2215C58.1381 15.7194 57.6026 17.6915 57.6026 17.6915H60.9216C60.9216 17.6915 61.5625 15.3129 61.8483 14.3312C62.2274 13.0293 63.2275 10.944 59.9215 10.877C58.0385 10.8386 57.1317 11.7751 57.1317 11.7751C57.1317 11.7751 56.8616 10.877 54.9551 10.877C53.2015 10.877 52.472 11.6687 52.472 11.6687L52.6607 11.0297ZM68.9943 10.8765C66.0408 10.8765 63.2327 12.3181 63.1217 15.1359C63.0278 17.5259 65.9938 17.8207 67.0873 17.8207C69.6294 17.8207 72.7123 16.7794 72.9709 13.5261C73.1127 11.7518 71.0879 10.8765 68.9943 10.8765ZM69.535 14.3546C69.194 15.6566 68.3466 16.796 67.3444 16.796C66.2619 16.796 66.2373 15.5974 66.5549 14.3312C66.8725 13.0656 67.7699 11.9174 68.6997 11.9174C69.8635 11.9168 69.8761 13.0537 69.535 14.3546ZM75.124 11.025L73.3062 17.6619H76.6242C76.6242 17.6619 77.2599 15.3788 77.4716 14.6152C77.6833 13.8516 78.054 12.5154 79.2018 12.5154C79.937 12.5154 80.2609 13.225 80.2609 13.225H80.5075L81.3731 11.1132C81.3731 11.1132 81.1082 10.8646 80.0137 10.8646C78.9197 10.8646 78.0723 11.6635 78.0723 11.6635L78.2486 11.025H75.124Z" fill="black"/>
</svg>
