<svg width="114" height="18" viewBox="0 0 114 18" fill="none" xmlns="http://www.w3.org/2000/svg">
<path d="M42.5394 3.46365V14.4197H49.8639V12.5116H44.786V9.71107H49.5254V7.86454H44.786V5.34095H49.6793V3.46365H42.5394ZM50.7257 14.4197H52.9415V3.4021H50.7257V14.4197ZM60.7277 10.2958C60.7277 8.11074 59.7429 6.60275 57.3116 6.60275C54.8803 6.60275 53.6186 8.04919 53.6186 10.5728C53.6186 13.2195 54.5726 14.6044 57.4347 14.6044C58.7888 14.6044 60.0199 14.2043 60.6046 13.8042L60.2045 12.3578C59.5582 12.6963 58.6042 12.9425 57.8348 12.9425C57.0654 12.9425 56.4807 12.7271 56.2345 12.4501C55.9575 12.1423 55.8036 11.6191 55.8036 11.096H60.7277V10.2958ZM58.5734 9.68029H55.8036C55.8344 8.63393 56.3576 8.11075 57.2501 8.11075C58.2349 8.11075 58.5734 8.75703 58.5734 9.68029ZM67.9907 7.61834C67.4675 7.06438 66.4211 6.6643 65.2824 6.6643C62.605 6.6643 61.3432 7.86454 61.3432 10.6651C61.3432 13.3426 62.3588 14.6351 65.2209 14.6351C66.3904 14.6351 67.406 14.3582 67.9599 13.9889L67.4983 12.4809C66.9443 12.7578 66.2365 12.9425 65.4056 12.9425C64.2361 12.9425 63.4667 12.2962 63.4667 10.6651C63.4667 8.91091 64.113 8.26462 65.2824 8.26462C65.9287 8.26462 66.4827 8.5416 66.852 8.88013L67.9907 7.61834ZM74.5459 6.7874H71.9915V4.97165L69.8372 5.34095V6.81818H68.5139V8.5416H69.8372V11.8961C69.8372 13.8965 70.4527 14.6351 72.2069 14.6351C73.1917 14.6351 74.115 14.4197 74.8536 14.0196L74.5459 12.4501C74.0842 12.6963 73.4687 12.8194 73.0071 12.8194C72.2685 12.8194 71.9915 12.5732 71.9915 11.6192V8.5416H74.5459V6.7874ZM75.623 6.7874V14.3889H77.8081V9.15711C78.1774 8.6647 78.8852 8.35695 79.593 8.35695C79.9931 8.35695 80.424 8.44927 80.6702 8.60315L81.1626 6.84895C80.8241 6.6643 80.2701 6.60275 79.7469 6.60275C79.0083 6.60275 78.085 6.94128 77.6234 7.55679V6.7874H75.623ZM84.948 6.60275C82.1782 6.60275 80.9779 7.92609 80.9779 10.5728C80.9779 13.0656 81.8396 14.6044 84.6094 14.6044C87.3177 14.6044 88.5795 13.3118 88.5795 10.6651C88.6102 8.0492 87.7485 6.60275 84.948 6.60275ZM86.3636 10.5112C86.3636 12.2654 86.0251 13.004 84.671 13.004C83.5323 13.004 83.1938 12.1116 83.1938 10.5728C83.1938 8.84936 83.5631 8.1723 84.8864 8.1723C86.1174 8.1723 86.3636 9.09556 86.3636 10.5112ZM89.3796 6.7874V14.3889H91.5647V8.7878C91.8417 8.60315 92.3956 8.38772 92.8265 8.38772C93.9036 8.38772 94.1191 8.81858 94.1191 9.64952V14.3889H96.3041V9.12634C96.3041 7.58756 95.7502 6.57197 93.9344 6.57197C93.1035 6.57197 92.1802 6.7874 91.4108 7.27981V7.24903V6.7874H89.3796ZM97.412 5.1563H99.6279V3.4021H97.412V5.1563ZM97.412 14.4197H99.5971V6.7874H97.412V14.4197ZM107.014 7.58756C106.491 7.03361 105.444 6.63352 104.306 6.63352C101.628 6.63352 100.366 7.83377 100.366 10.6343C100.366 13.3118 101.382 14.6044 104.244 14.6044C105.414 14.6044 106.429 14.3274 106.983 13.9581L106.522 12.4501C105.968 12.7271 105.26 12.9117 104.429 12.9117C103.259 12.9117 102.49 12.2654 102.49 10.6343C102.49 8.88013 103.136 8.23385 104.306 8.23385C104.952 8.23385 105.506 8.51082 105.875 8.84935L107.014 7.58756ZM113.908 7.27981C113.015 6.87973 112.153 6.60275 110.922 6.60275C108.799 6.60275 107.66 7.49523 107.66 8.9109C107.66 10.3574 108.584 11.0036 109.753 11.2806L110.615 11.4653C111.384 11.6192 111.876 11.8961 111.876 12.2654C111.876 12.7271 111.384 12.9733 110.707 12.9733C109.845 12.9733 108.799 12.6963 108.183 12.327L107.629 13.8965C108.399 14.2966 109.384 14.6044 110.707 14.6044C112.738 14.6044 114 13.8042 114 12.1116C114 11.0036 113.292 10.3574 112.369 10.0804C112.123 10.0188 111.63 9.86495 111.323 9.8034C110.522 9.64952 109.722 9.46487 109.722 8.88013C109.722 8.4185 110.215 8.1723 110.984 8.1723C111.846 8.1723 112.707 8.38772 113.323 8.72625L113.908 7.27981Z" fill="#6B6C6C"/>
<path d="M24.0433 14.4194H28.6904V12.2959H23.4278V3.46338H20.9042V14.4194H24.0433Z" fill="#6B6C6C"/>
<path d="M34.2608 10.2341H36.3228V12.1421C35.9534 12.296 35.1841 12.4191 34.4762 12.4191C32.1988 12.4191 31.4295 11.2497 31.4295 8.91072C31.4295 6.66411 32.1681 5.34076 34.4455 5.34076C35.7072 5.34076 36.4459 5.74085 37.0306 6.51023L38.6001 5.06378C37.6461 3.67889 35.9534 3.27881 34.3839 3.27881C30.8447 3.27881 28.9674 5.21766 28.9674 8.91072C28.9674 12.6038 30.6601 14.5734 34.3839 14.5734C36.0765 14.5734 37.7692 14.1425 38.6617 13.4963V8.17211H34.2608V10.2341Z" fill="#6B6C6C"/>
<path d="M8.59406 17.4356C13.2719 17.4356 17.0881 13.6194 17.0881 8.94154C17.0881 4.23289 13.2719 0.44751 8.59406 0.44751C3.91619 0.44751 0.100029 4.23289 0.100029 8.94154C0.100029 13.6194 3.91619 17.4356 8.59406 17.4356Z" fill="#A51B37"/>
<path d="M8.25553 5.21777V12.6654H10.6252V11.9884H8.93259V5.21777H8.25553Z" fill="white"/>
<path d="M5.88582 7.24896C6.43977 7.24896 6.9014 6.78733 6.9014 6.23337C6.9014 5.67941 6.43977 5.21777 5.88582 5.21777C5.33186 5.21777 4.87022 5.67941 4.87022 6.23337C4.87022 6.78733 5.33186 7.24896 5.88582 7.24896Z" fill="white"/>
<path d="M8.9326 1.83228C8.84027 1.83228 8.68639 1.83228 8.59407 1.83228C4.68558 1.83228 1.48494 5.03293 1.48494 8.94141C1.48494 10.8495 2.22355 12.6345 3.57767 13.9578C4.93179 15.3119 6.71676 16.0505 8.59407 16.0505C10.5021 16.0505 12.2871 15.3119 13.6105 13.9578C14.9646 12.6037 15.7032 10.8187 15.7032 8.94141V8.60288H15.4262H10.6252V9.27994H15.0261V9.37226C14.8107 12.7268 12.0101 15.3735 8.59407 15.3735C6.87064 15.3735 5.27032 14.6964 4.0393 13.4962C2.80828 12.2652 2.16199 10.6648 2.16199 8.94141C2.16199 7.21798 2.83906 5.58688 4.0393 4.38664C5.27032 3.15562 6.87064 2.50934 8.59407 2.50934C8.68639 2.50934 8.84027 2.50934 8.9326 2.50934V1.83228Z" fill="white"/>
</svg>
