<svg width="91" height="23" viewBox="0 0 91 23" fill="none" xmlns="http://www.w3.org/2000/svg">
<path fill-rule="evenodd" clip-rule="evenodd" d="M25.8721 19.3992C25.8714 20.3337 25.4999 21.2297 24.8392 21.8905C24.1784 22.5512 23.2824 22.9227 22.3479 22.9234H3.87911C1.81333 22.9234 0.233673 21.3437 0.233673 19.3992V4.45409C0.233673 2.51008 1.81333 0.93042 3.87911 0.93042H22.3479C23.2823 0.931062 24.1782 1.3025 24.839 1.96316C25.4998 2.62382 25.8713 3.51971 25.8721 4.45409V19.3992Z" fill="white"/>
<path fill-rule="evenodd" clip-rule="evenodd" d="M90.8777 7.49158V10.4078C90.8777 10.5291 90.6352 10.5291 90.5139 10.4078C90.0277 9.67865 90.2703 8.70689 89.4203 8.22076C88.3268 7.61335 86.6249 7.61335 85.6536 8.46382C83.9517 9.92171 83.8304 12.4741 84.3165 14.6607C84.5601 15.7542 85.4101 16.969 86.6249 17.2126C87.2333 17.3339 87.8407 17.4552 88.3268 17.0903C88.5694 16.1191 88.4481 15.0246 88.4481 14.0533C88.4481 13.6884 88.2045 13.3236 87.8407 13.2023C87.4758 13.081 86.9897 13.3236 86.6249 12.9597C86.5036 12.5949 86.7471 12.4736 86.9897 12.4736H91V17.4552C90.3926 17.9413 89.5416 17.9413 88.8129 18.0626C86.6249 18.0626 84.1952 18.1848 82.6161 16.4829C81.279 14.9033 81.0364 12.4736 81.6438 10.5291C82.6161 8.09899 85.0457 7.00545 87.5971 7.12674C88.8129 7.12674 89.7852 7.24852 90.8777 7.49158ZM58.9222 7.3698C59.0434 7.49158 58.9222 7.61287 58.8009 7.73464C58.6786 7.85593 58.1925 7.85593 58.1925 8.22028C58.6786 9.55687 59.4083 10.6504 60.0157 11.8657C60.0157 11.8657 61.7166 8.7064 62.6889 7.3698H71.3154L72.4089 9.55688C72.4089 9.67816 72.4089 9.92123 72.1664 9.92123C71.8015 9.92123 71.5589 9.07075 71.3154 8.82769C70.5867 7.85544 69.3719 7.85544 68.2783 7.97722V16.2399C68.2783 16.6037 68.2783 16.8473 68.6422 17.0898C69.007 17.2121 69.4932 17.3334 69.7357 17.4547C69.858 17.6982 69.7357 17.9408 69.4932 17.9408H64.3894C64.2681 17.8195 64.2681 17.576 64.3894 17.4547C64.7542 17.2121 65.4829 17.4547 65.7264 16.8473C65.969 16.4824 65.969 16.1186 65.969 16.1186V8.09899C65.2403 7.73464 64.5116 7.9777 63.9032 7.9777C62.4449 8.94946 61.7162 11.0152 60.8662 12.7167C60.7439 14.0538 60.6226 15.6334 60.8662 16.9695C61.1087 17.4557 62.3236 17.0908 61.9597 17.9418H56.7346C56.6123 17.9418 56.6123 17.6992 56.6123 17.6992C56.8559 16.9695 57.8281 17.5769 58.0707 16.8482C58.192 15.7547 58.192 14.7825 58.0707 13.6889L55.6411 8.70688C55.3975 8.09947 54.7901 7.9777 54.1827 7.73512C54.0614 7.49206 54.1827 7.37029 54.4253 7.37029H58.9222V7.3698Z" fill="black"/>
<path fill-rule="evenodd" clip-rule="evenodd" d="M28.7883 22.9233C27.6948 22.9233 26.7226 22.0724 26.7226 20.8575C26.7226 19.6417 27.6943 18.7917 28.7883 18.7917C29.8819 18.7917 30.8536 19.6417 30.8536 20.8575C30.8536 22.0724 29.8819 22.9233 28.7883 22.9233ZM27.0869 20.8575C27.0869 21.8288 27.8161 22.5585 28.7883 22.5585C29.7601 22.5585 30.4893 21.8288 30.4893 20.8575C30.4893 19.8853 29.7606 19.1556 28.7883 19.1556C27.8161 19.1556 27.0869 19.8853 27.0869 20.8575Z" fill="#4BA2DA"/>
<path fill-rule="evenodd" clip-rule="evenodd" d="M28.3022 20.9789H28.7883L29.3958 22.0725H29.7601L29.1527 20.9789C29.517 20.9789 29.7601 20.7354 29.7601 20.3715C29.7601 19.8854 29.3958 19.6418 28.9096 19.6418H28.0592V22.0725H28.3022V20.9789ZM28.3022 20.7354V20.0067H28.7883C29.0314 20.0067 29.3958 20.0067 29.3958 20.3715C29.3958 20.7354 29.0314 20.7354 28.7883 20.7354H28.3022Z" fill="#4BA2DA"/>
<path fill-rule="evenodd" clip-rule="evenodd" d="M50.2947 13.3237H47.5002C47.5002 13.3237 48.3512 10.4079 48.8373 8.94953L50.2947 13.3237ZM33.2842 7.36987L36.9292 13.6885L40.4529 7.36987H43.9765C44.0983 8.09906 43.0048 7.85599 42.883 8.4634C42.883 10.8935 42.883 13.9311 43.0048 16.3612C43.0048 16.7261 43.2474 17.3335 43.8553 17.3335C44.3414 17.3335 44.9488 17.2122 45.1918 16.7261C46.1641 14.0529 47.1354 11.501 47.9863 8.82775C48.1076 8.4634 47.865 7.85551 47.5002 7.85551C46.8928 7.85551 47.0141 7.36938 47.0141 7.36938H51.0244C51.0244 7.36938 53.0901 13.8093 54.305 16.8473C54.5485 17.576 55.642 16.9686 55.5198 17.9409H50.5382C50.417 17.8196 50.417 17.6983 50.417 17.4548C50.6595 17.0899 51.3892 17.4548 51.5105 16.8473C51.2669 15.9964 50.6595 14.1741 50.6595 14.1741H47.2576L46.4067 16.8473C46.2854 17.4548 47.7438 17.2122 47.6215 17.9409H39.2376C38.995 17.8196 38.995 17.6983 39.1163 17.4548C39.4806 17.2122 39.9667 17.4548 40.2098 16.9686C40.2098 16.9686 40.4529 16.7261 40.4529 16.1186C40.4529 14.0529 40.5742 11.7435 40.3316 9.55694L36.4436 17.3335C36.2005 17.4548 35.9574 17.4548 35.5931 17.3335C34.4996 14.7816 33.163 12.3509 31.8264 9.80001C31.462 11.9876 31.462 14.2959 31.462 16.4825C31.462 17.3335 32.3125 17.2122 32.7986 17.4548C33.0417 17.4548 32.9199 17.8196 32.9199 17.9409H29.0319V17.4548C29.6393 17.3335 30.1249 17.0899 30.2467 16.6038C30.4898 14.1741 30.7328 11.6222 30.8541 9.19211C30.8541 8.70647 30.7328 8.09857 30.2467 7.97728C30.0036 7.85599 29.3962 7.85599 29.518 7.49164L29.6393 7.36987H33.2842ZM77.0262 13.3237H74.2317L75.5678 8.94953L77.0262 13.3237ZM80.9151 16.6043C81.1577 17.5765 82.4948 16.9691 82.2513 17.9414H77.2697C77.1474 17.8201 77.0262 17.6988 77.1474 17.4552C77.391 17.0904 78.3632 17.334 78.2419 16.8478L77.391 14.1746H73.9881L73.1381 16.8478C73.0168 17.5765 74.4742 16.9691 74.2317 17.9414H70.4649C70.3437 17.8201 70.3437 17.5765 70.4649 17.4552C70.9511 17.334 71.801 17.334 72.0446 16.6043L74.7178 8.94953C74.7178 8.58518 74.8391 8.34212 74.5965 8.09905C74.353 7.7347 73.7455 7.73471 73.7455 7.36987H77.7558L80.9151 16.6043Z" fill="black"/>
<path fill-rule="evenodd" clip-rule="evenodd" d="M0.233673 7.85598C0.233673 7.85598 0.233673 6.64116 1.69156 6.64116C3.27122 6.64116 4.0004 8.46388 4.0004 8.46388L7.4023 16.3617C7.4023 16.3617 7.76665 17.2126 8.37406 17.5765C8.98147 17.9413 10.075 17.9413 10.075 17.9413H12.2621C12.2621 17.9413 11.8977 17.5765 11.5329 17.0904C11.1685 16.6043 10.9255 16.1191 10.9255 16.1191L7.28004 7.61292C7.28004 7.61292 6.79391 6.64116 6.06521 6.27633C5.4578 5.91198 4.60733 5.91198 4.60733 5.91198H2.42123C2.42123 5.91198 1.2064 5.91198 0.84157 5.66891C0.234158 5.30456 0.234158 4.45409 0.234158 4.45409C0.234158 2.51008 1.81382 0.93042 3.8796 0.93042H22.3484C23.2828 0.931062 24.1787 1.3025 24.8395 1.96316C25.5002 2.62382 25.8718 3.51971 25.8726 4.45409V16.2404C25.8726 16.2404 25.8726 17.2126 24.536 17.2126C22.835 17.2126 22.3489 15.8756 22.3489 15.8756L18.8252 7.61292C18.8252 7.61292 18.3391 6.64116 17.6099 6.27633C16.8812 5.91198 16.0303 5.91198 16.0303 5.91198H13.9645C13.9645 5.91198 14.4506 6.51939 14.8149 6.88374C15.058 7.24809 15.3011 7.97727 15.3011 7.97727L18.8247 16.3612C18.8247 16.3612 19.3109 17.2122 19.9183 17.576C20.5257 17.9409 21.6192 17.9409 21.6192 17.9409H23.8063C23.8063 17.9409 24.7781 17.8196 25.2642 18.1844C25.9934 18.6696 25.8721 19.3992 25.8721 19.3992C25.8714 20.3337 25.4999 21.2297 24.8392 21.8905C24.1784 22.5512 23.2824 22.9227 22.3479 22.9234H3.87911C1.81333 22.9234 0.233673 21.3437 0.233673 19.3992V7.85598Z" fill="#4BA2DA"/>
<path fill-rule="evenodd" clip-rule="evenodd" d="M8.25325 5.91211H10.4403C10.4403 5.91211 11.2908 5.91211 12.02 6.27646C12.6274 6.64081 13.1135 7.61305 13.1135 7.61305L16.759 16.1192C16.759 16.1192 17.002 16.6044 17.3664 17.0905C17.7312 17.5766 18.0955 17.9415 18.0955 17.9415H15.9085C15.9085 17.9415 14.8149 17.9415 14.207 17.5766C13.5996 17.2128 13.2353 16.3618 13.2353 16.3618L9.71162 7.9774C9.71162 7.9774 9.46856 7.2487 9.10421 6.88387C8.86115 6.51952 8.25325 5.91211 8.25325 5.91211Z" fill="white"/>
</svg>
