<svg width="95" height="24" viewBox="0 0 95 24" fill="none" xmlns="http://www.w3.org/2000/svg">
<path d="M95.0001 0.287598H0.820068V23.4326H95.0001V0.287598Z" fill="#FC0204"/>
<path d="M91.7231 14.4016C92.0069 11.8729 90.82 9.7571 88.6525 8.64758C85.2724 6.97041 81.7632 6.84139 78.2798 8.31215C75.4157 9.52488 74.074 12.8018 75.3125 15.6659C75.9318 17.1367 76.9897 18.1688 78.4863 18.7107C81.8922 20.0008 85.2724 19.9492 88.6009 18.4268C90.0459 17.7818 91.0522 16.6464 91.594 15.2273H87.2076C86.7173 16.6464 85.0402 17.6527 83.4662 17.1625C83.3372 17.1109 83.234 17.0593 83.0791 16.9819C82.4599 16.698 82.0986 16.0788 82.0986 15.3821V14.3758H91.7231V14.4016ZM82.1244 10.8408C82.1244 10.1699 82.7179 9.60228 83.4146 9.60228C84.0855 9.60228 84.6789 10.1699 84.6789 10.8408V12.4406H82.1503V10.8408H82.1244Z" fill="white"/>
<path d="M61.6629 14.4016C61.9467 11.8729 60.7598 9.7571 58.5924 8.64758C55.238 6.97041 51.703 6.84139 48.2455 8.31215C45.3814 9.52488 44.0654 12.8018 45.2782 15.6659C45.8974 17.1367 46.9811 18.1688 48.4777 18.7107C51.8837 20.0008 55.2638 19.9492 58.5924 18.4268C60.0115 17.7818 61.0178 16.6464 61.5597 15.2273H57.1732C56.7088 16.6464 55.0316 17.6527 53.4318 17.1625C53.3028 17.1109 53.1222 17.0593 52.9674 16.9819C52.3481 16.698 51.9095 16.0788 51.9095 15.3821V14.3758H61.6629V14.4016ZM51.9095 10.8408C51.9095 10.1699 52.5029 9.60228 53.1738 9.60228C53.8705 9.60228 54.4381 10.1699 54.4381 10.8408V12.4406H51.9095V10.8408V10.8408Z" fill="white"/>
<path d="M64.1399 16.6465V6.60922H62.4111V4.15796H72.4226V16.6465H74.1772V19.0977H62.4111V16.6465H64.1399Z" fill="white"/>
<path d="M37.3309 7.5638L40.9433 5.706L39.7821 3.53857L36.1956 5.37057L37.3309 7.5638Z" fill="white"/>
<path d="M42.3626 16.6467V7.87378H32.6865V10.325H34.4669V16.6467H32.6865V19.098H44.1171V16.6467H42.3626Z" fill="white"/>
<path d="M18.0821 9.98937L22.3137 4.15796H31.1124V6.60922H29.3321V16.6465H31.1124V19.0977H19.6818V16.6465H21.4364V10.1442L14.9341 19.0977L8.43183 10.1442V16.6465H10.1864V19.0977H3.86475V16.6465H5.61933V6.60922H3.86475V4.15796H13.8504L18.0821 9.98937Z" fill="white"/>
</svg>
