<svg width="26" height="26" viewBox="0 0 26 26" fill="none" xmlns="http://www.w3.org/2000/svg">
<path d="M13.6145 8.37793C14.6772 8.49982 15.6669 8.97906 16.4214 9.73708C17.1758 10.4951 17.6501 11.487 17.7666 12.5499" stroke="white" stroke-linecap="round" stroke-linejoin="round"/>
<path d="M13.6145 10.4797C14.1263 10.5807 14.5962 10.8322 14.964 11.2019C15.3317 11.5717 15.5806 12.0429 15.6787 12.555" stroke="white" stroke-linecap="round" stroke-linejoin="round"/>
<path d="M10.5865 13.0537C11.1202 14.0346 11.9227 14.843 12.8999 15.384C13.3025 15.6032 13.7743 15.6581 14.2166 15.5375L15.0607 15.3105C15.1774 15.2783 15.2994 15.2702 15.4193 15.2869C15.5391 15.3036 15.6543 15.3447 15.7577 15.4076C16.3464 15.7726 16.8958 16.1976 17.3972 16.6754L17.431 16.7086C17.5757 16.8565 17.6709 17.0457 17.7033 17.25C17.7288 18.0297 16.5335 19.0744 16.3028 19.2066C15.7529 19.605 15.04 19.5963 14.1633 19.1895C11.7313 18.1744 7.83783 14.3327 6.80811 11.7908C6.41366 10.9186 6.38874 10.1899 6.78675 9.63966C6.97181 9.32896 8.00329 8.19638 8.73703 8.23433C8.95551 8.2691 9.15626 8.37548 9.30767 8.53673C9.78491 9.045 10.2081 9.60142 10.5705 10.197C10.6322 10.3 10.6724 10.4143 10.6888 10.5333C10.7051 10.6522 10.6972 10.7732 10.6654 10.8889L10.4353 11.7498C10.3176 12.1878 10.3717 12.6542 10.5865 13.0537V13.0537Z" stroke="white" stroke-linecap="round" stroke-linejoin="round"/>
<rect x="0.5" y="0.5" width="25" height="25" rx="12.5" stroke="url(#paint0_linear)"/>
<defs>
<linearGradient id="paint0_linear" x1="121.06" y1="26.8635" x2="62.4954" y2="-64.9282" gradientUnits="userSpaceOnUse">
<stop stop-color="#54AAD9"/>
<stop offset="1" stop-color="#45B585"/>
</linearGradient>
</defs>
</svg>
