<svg width="36" height="40" viewBox="0 0 36 40" fill="none" xmlns="http://www.w3.org/2000/svg">
<path d="M1 31.4111H35" stroke="white" stroke-width="1.75" stroke-miterlimit="10" stroke-linecap="round" stroke-linejoin="round"/>
<path d="M7 8.18335C7.96649 8.18335 8.75 7.39985 8.75 6.43335C8.75 5.46685 7.96649 4.68335 7 4.68335C6.0335 4.68335 5.25 5.46685 5.25 6.43335C5.25 7.39985 6.0335 8.18335 7 8.18335Z" fill="white"/>
<path d="M13.4221 8.18335C14.3886 8.18335 15.1721 7.39985 15.1721 6.43335C15.1721 5.46685 14.3886 4.68335 13.4221 4.68335C12.4556 4.68335 11.6721 5.46685 11.6721 6.43335C11.6721 7.39985 12.4556 8.18335 13.4221 8.18335Z" fill="white"/>
<path d="M19.75 8.18335C20.7165 8.18335 21.5 7.39985 21.5 6.43335C21.5 5.46685 20.7165 4.68335 19.75 4.68335C18.7835 4.68335 18 5.46685 18 6.43335C18 7.39985 18.7835 8.18335 19.75 8.18335Z" fill="white"/>
<path d="M32.1667 36.4167H3.83333C2.22778 36.4167 1 35.1889 1 33.5833V3.83333C1 2.22778 2.22778 1 3.83333 1H32.1667C33.7722 1 35 2.22778 35 3.83333V33.5833C35 35.1889 33.7722 36.4167 32.1667 36.4167Z" stroke="white" stroke-width="1.75" stroke-miterlimit="10" stroke-linecap="round" stroke-linejoin="round"/>
<path d="M30.2777 31.4111H5.72217V14.5056C5.72217 12.9 6.90447 11.6722 8.45056 11.6722H27.5493C29.0954 11.6722 30.2777 12.9 30.2777 14.5056V31.4111Z" stroke="white" stroke-width="1.75" stroke-miterlimit="10" stroke-linecap="round" stroke-linejoin="round"/>
<path d="M30.75 36.4167V38.9167" stroke="white" stroke-width="1.75" stroke-miterlimit="10" stroke-linecap="round" stroke-linejoin="round"/>
<path d="M5.25 36.4167V38.9167" stroke="white" stroke-width="1.75" stroke-miterlimit="10" stroke-linecap="round" stroke-linejoin="round"/>
<path d="M13.0889 16.5833H23.0055" stroke="white" stroke-width="1.75" stroke-miterlimit="10" stroke-linecap="round" stroke-linejoin="round"/>
</svg>
