<svg width="36" height="56" viewBox="0 0 36 56" fill="none" xmlns="http://www.w3.org/2000/svg">
<path d="M6.75 35.5C7.7165 35.5 8.5 34.7165 8.5 33.75C8.5 32.7835 7.7165 32 6.75 32C5.7835 32 5 32.7835 5 33.75C5 34.7165 5.7835 35.5 6.75 35.5Z" fill="#3A4151"/>
<path d="M12.75 35.5C13.7165 35.5 14.5 34.7165 14.5 33.75C14.5 32.7835 13.7165 32 12.75 32C11.7835 32 11 32.7835 11 33.75C11 34.7165 11.7835 35.5 12.75 35.5Z" fill="#3A4151"/>
<path d="M20 33.75C20 34.4404 19.4404 35 18.75 35C18.0596 35 17.5 34.4404 17.5 33.75C17.5 33.0596 18.0596 32.5 18.75 32.5C19.4404 32.5 20 33.0596 20 33.75Z" fill="#3A4151" stroke="#3A4151"/>
<path d="M14 43H22" stroke="#3A4151" stroke-width="1.75" stroke-miterlimit="10" stroke-linecap="round" stroke-linejoin="round"/>
<path d="M8 6.75C8 7.44036 7.44036 8 6.75 8C6.05964 8 5.5 7.44036 5.5 6.75C5.5 6.05964 6.05964 5.5 6.75 5.5C7.44036 5.5 8 6.05964 8 6.75Z" fill="#3A4151" stroke="#3A4151"/>
<path d="M12.75 8.5C13.7165 8.5 14.5 7.7165 14.5 6.75C14.5 5.7835 13.7165 5 12.75 5C11.7835 5 11 5.7835 11 6.75C11 7.7165 11.7835 8.5 12.75 8.5Z" fill="#3A4151"/>
<path d="M20 6.75C20 7.44036 19.4404 8 18.75 8C18.0596 8 17.5 7.44036 17.5 6.75C17.5 6.05964 18.0596 5.5 18.75 5.5C19.4404 5.5 20 6.05964 20 6.75Z" fill="#3A4151" stroke="#3A4151"/>
<path d="M14 16H22" stroke="#3A4151" stroke-width="1.75" stroke-miterlimit="10" stroke-linecap="round" stroke-linejoin="round"/>
<path d="M1 5C1 2.79086 2.79086 1 5 1H31C33.2091 1 35 2.79086 35 5V52C35 53.6569 33.6569 55 32 55H4C2.34315 55 1 53.6569 1 52V5Z" stroke="#3A4151" stroke-width="1.75"/>
<rect x="6" y="39" width="24" height="12" rx="2.5" stroke="#3A4151" stroke-width="1.75"/>
<rect x="6" y="12" width="24" height="12" rx="2.5" stroke="#3A4151" stroke-width="1.75"/>
<line x1="1" y1="28.625" x2="35" y2="28.625" stroke="#3A4151" stroke-width="1.75"/>
</svg>
