<svg width="36" height="42" viewBox="0 0 36 42" fill="none" xmlns="http://www.w3.org/2000/svg">
<path d="M9.75 11.5C10.7165 11.5 11.5 10.7165 11.5 9.75C11.5 8.7835 10.7165 8 9.75 8C8.7835 8 8 8.7835 8 9.75C8 10.7165 8.7835 11.5 9.75 11.5Z" fill="white"/>
<path d="M25.75 11.5C26.7165 11.5 27.5 10.7165 27.5 9.75C27.5 8.7835 26.7165 8 25.75 8C24.7835 8 24 8.7835 24 9.75C24 10.7165 24.7835 11.5 25.75 11.5Z" fill="white"/>
<path d="M32.1667 41H3.83333C2.22778 41 1 39.752 1 38.12V7.88C1 6.248 2.22778 5 3.83333 5H32.1667C33.7722 5 35 6.248 35 7.88V38.12C35 39.656 33.7722 41 32.1667 41Z" stroke="white" stroke-width="1.75" stroke-miterlimit="10" stroke-linecap="round" stroke-linejoin="round"/>
<path d="M27.2556 36.4167H8.83895C7.23339 36.4167 6.00562 35.0773 6.00562 33.3258V22.5076C6.00562 20.7561 7.23339 19.4167 8.83895 19.4167H27.2556C28.8612 19.4167 30.0889 20.7561 30.0889 22.5076V33.3258C30.0889 35.0773 28.7667 36.4167 27.2556 36.4167Z" stroke="white" stroke-width="1.75" stroke-miterlimit="10" stroke-linecap="round" stroke-linejoin="round"/>
<path d="M1 14H35" stroke="white" stroke-width="1.75" stroke-miterlimit="10" stroke-linecap="round" stroke-linejoin="round"/>
<path d="M7 1H12" stroke="white" stroke-width="1.75" stroke-miterlimit="10" stroke-linecap="round" stroke-linejoin="round"/>
<path d="M23 1H28" stroke="white" stroke-width="1.75" stroke-miterlimit="10" stroke-linecap="round" stroke-linejoin="round"/>
</svg>
