<svg width="62" height="46" viewBox="0 0 62 46" fill="none" xmlns="http://www.w3.org/2000/svg">
<path d="M43.6294 41.4074V44.2778" stroke="#3A4151" stroke-width="1.5" stroke-miterlimit="10" stroke-linecap="round" stroke-linejoin="round"/>
<path d="M18.3701 41.4074V44.2778" stroke="#3A4151" stroke-width="1.5" stroke-miterlimit="10" stroke-linecap="round" stroke-linejoin="round"/>
<path d="M49.6001 40.8333H62.0001V20.8468H49.6001L49.6001 40.8333ZM60.4058 23.2123C60.4058 23.1246 60.4944 22.9494 60.6715 22.9494C60.7601 22.9494 60.9372 23.037 60.9372 23.2123V27.5927C60.9372 27.6803 60.8487 27.8556 60.6715 27.8556C60.5829 27.8556 60.4058 27.768 60.4058 27.5927V23.2123Z" fill="#DCDDDE"/>
<path d="M48.7144 16.0283H49.6001V20.4087H62.0001V18.2185H59.3429C59.2543 18.2185 59.0772 18.1309 59.0772 17.9557C59.0772 17.8681 59.1658 17.6928 59.3429 17.6928H62.0001V15.0646H48.7144V16.0283Z" fill="#DCDDDE"/>
<path d="M49.6001 42.2835C49.6001 43.2472 50.3972 44.0357 51.3715 44.0357H62.0001V41.4074H49.6001V42.2835Z" fill="#DCDDDE"/>
<path d="M49.6001 13.5752H62.0001V7.70535H49.6001V13.5752ZM60.4058 9.19472C60.4058 9.10711 60.4944 8.93189 60.6715 8.93189C60.7601 8.93189 60.9372 9.0195 60.9372 9.19472V11.823C60.9372 11.9106 60.8487 12.0858 60.6715 12.0858C60.5829 12.0858 60.4058 11.9982 60.4058 11.823V9.19472Z" fill="#DCDDDE"/>
<path d="M60.2286 5.51511H62.0001V3.76292H48.7144V4.63901H49.6001V7.2673H62.0001V5.95316H60.2286C60.1401 5.95316 59.9629 5.86555 59.9629 5.69033C60.0515 5.60272 60.1401 5.51511 60.2286 5.51511Z" fill="#DCDDDE"/>
<path d="M12.4 20.8468H0L0 40.8333H12.4V20.8468ZM1.59428 27.5927C1.59428 27.6803 1.50571 27.8556 1.32857 27.8556C1.24 27.8556 1.06286 27.768 1.06286 27.5927V23.2123C1.06286 23.1246 1.15143 22.9494 1.32857 22.9494C1.41714 22.9494 1.59428 23.037 1.59428 23.2123V27.5927Z" fill="#DCDDDE"/>
<path d="M13.2857 16.0283H12.4V20.4087H0V18.2185H2.65714C2.74571 18.2185 2.92286 18.1309 2.92286 17.9557C2.92286 17.8681 2.83428 17.6928 2.65714 17.6928H0V15.0646H13.2857V16.0283Z" fill="#DCDDDE"/>
<path d="M12.4 42.2835C12.4 43.2472 11.6028 44.0357 10.6286 44.0357H0V41.4074H12.4V42.2835Z" fill="#DCDDDE"/>
<path d="M12.4 7.70535H0V13.5752H12.4V7.70535ZM1.59428 11.823C1.59428 11.9106 1.50571 12.0858 1.32857 12.0858C1.24 12.0858 1.06286 11.9982 1.06286 11.823V9.19472C1.06286 9.10711 1.15143 8.93189 1.32857 8.93189C1.41714 8.93189 1.59428 9.0195 1.59428 9.19472V11.823Z" fill="#DCDDDE"/>
<path d="M1.77143 5.51511H0V3.76292H13.2857V4.63901H12.4V7.2673H0V5.95316H1.77143C1.86 5.95316 2.03714 5.86555 2.03714 5.69033C2.03714 5.60272 1.86 5.51511 1.77143 5.51511Z" fill="#DCDDDE"/>
<rect x="14.9258" y="1.22224" width="32.1481" height="40.1852" rx="2" stroke="#3A4151" stroke-width="1.5"/>
<rect x="33.2964" y="8.11112" width="9.18518" height="16.0741" stroke="#3A4151" stroke-width="1.5" stroke-linejoin="round"/>
<path d="M21.8149 9.25927V23.037" stroke="#3A4151" stroke-width="1.5" stroke-miterlimit="10" stroke-linecap="round" stroke-linejoin="round"/>
<path d="M28.7036 41.4074V1.22224" stroke="#3A4151" stroke-width="1.5" stroke-miterlimit="10" stroke-linecap="round" stroke-linejoin="round"/>
</svg>
