<svg width="90" height="15" viewBox="0 0 90 15" fill="none" xmlns="http://www.w3.org/2000/svg">
<path d="M19.1571 1.31201H13.742L11.5964 13.4193H14.917L16.2708 3.99401H16.6028L17.9821 13.4193H21.3027L19.1571 1.31201Z" fill="#074CA1"/>
<path d="M34.8404 13.4193L34.6872 4.30053H34.3807L32.8225 13.4193H29.5786L28.0205 4.30053H27.714L27.5607 13.4193H24.47L24.9553 1.31201H30.1405L31.0601 8.00424H31.3411L32.2351 1.31201H37.4203L37.9311 13.4193H34.8404Z" fill="#074CA1"/>
<path d="M53.8698 10.7629L53.8443 1.31201H57.2415V10.5841V10.6352V10.6862L57.267 10.7373V10.7884V10.8395V10.8906L57.2926 10.9161L57.3181 10.9672V11.0183L57.3437 11.0694L57.3692 11.0949L57.3948 11.146L57.4203 11.1715L57.4458 11.2226L57.4714 11.2482L57.4969 11.2737L57.5225 11.3248L57.5736 11.3503L57.5991 11.3759L57.6502 11.4014L57.6757 11.427L57.7268 11.4525L57.7524 11.4781L57.8034 11.5036L57.8545 11.5292H57.8801L57.9312 11.5547H57.9822H58.0333L58.0844 11.5802H58.1355H58.1866H58.2377H58.2632L58.3143 11.5547H58.3654H58.4165L58.4676 11.5292H58.5186L58.5442 11.5036L58.5953 11.4781L58.6464 11.4525L58.6719 11.427L58.723 11.4014L58.7485 11.3759L58.7741 11.3503L58.8252 11.3248L58.8507 11.2737L58.8762 11.2482L58.9018 11.2226L58.9273 11.1715L58.9529 11.146L58.9784 11.0949L59.004 11.0694L59.0295 11.0183L59.055 10.9672V10.9161L59.0806 10.8906V10.8395V10.7884L59.1061 10.7373V10.6862V10.6352V10.5841V1.31201H62.5033V10.8139V11.0183L62.4778 11.1971L62.4522 11.4014L62.4012 11.5802L62.3501 11.759L62.299 11.9378L62.2224 12.0911L62.1202 12.2443L62.0436 12.3976L61.9414 12.5509L61.8137 12.6786L61.7115 12.8063L61.5838 12.934L61.4305 13.0617L61.3028 13.1639L61.1496 13.2661L60.9963 13.3682L60.843 13.4704L60.6642 13.547L60.4854 13.6492L60.3066 13.7003L60.1278 13.7769L59.949 13.828L59.7702 13.9046L59.5659 13.9302L59.3871 13.9813L58.9784 14.0579L58.5697 14.0834H58.1866H57.7779L57.3692 14.0323L56.9861 13.9813L56.7817 13.9302L56.5774 13.8791L56.3986 13.828L56.2198 13.7769L56.041 13.7003L55.8622 13.6237L55.6834 13.547L55.5301 13.4449L55.3513 13.3682L55.1981 13.2661L55.0448 13.1383L54.9171 13.0362L54.7894 12.9085L54.6617 12.7807L54.534 12.653L54.4318 12.4998L54.3296 12.3721L54.2274 12.2188L54.1508 12.04L54.0742 11.8868L53.9976 11.7079L53.9465 11.5292L53.9209 11.3503L53.8698 11.146V10.9672V10.7629Z" fill="#074CA1"/>
<path d="M76.9351 1.31201H73.9976V8.89824H73.921L70.4982 1.31201H66.8712V13.4193H69.8086V6.34396H69.8852L73.1036 13.4193H76.9351V1.31201Z" fill="#074CA1"/>
<path d="M41.5327 11.0438V9.43461H44.9299L44.9043 10.1498V10.3286V10.4819V10.5585L44.9299 10.6351V10.7118L44.9554 10.7884L44.981 10.8395V10.865L45.0065 10.9161L45.0321 10.9416V10.9672L45.0576 10.9927V11.0183L45.0831 11.0438L45.1087 11.0694L45.1342 11.0949L45.1598 11.1204L45.1853 11.146L45.2109 11.1715L45.2364 11.1971L45.2619 11.2226L45.2875 11.2482H45.313L45.3386 11.2737L45.3897 11.2992H45.4152L45.4407 11.3248L45.4918 11.3503H45.5429L45.6195 11.3759L45.7217 11.4014H45.8239H45.9261H45.9516H45.9771H46.0027H46.0282H46.0538H46.0793H46.1049H46.1304L46.1559 11.3759L46.207 11.3503L46.2581 11.3248L46.3092 11.2992L46.3603 11.2737L46.4114 11.2482L46.4625 11.1971L46.5135 11.1715L46.5391 11.1204L46.5902 11.0694L46.6157 11.0183L46.6668 10.9672L46.6923 10.9161L46.7179 10.8395L46.7434 10.7884L46.769 10.7118L46.7945 10.6607V10.584V10.5074V10.4308V10.3542V10.2775V10.1753L46.769 10.0987L46.7434 10.0221L46.7179 9.91992L46.6668 9.81775L46.6157 9.74113L46.5902 9.69004L46.5646 9.63895L46.5391 9.58787L46.5135 9.56232L46.488 9.51123L46.4625 9.4857L46.3858 9.40906L46.3092 9.33244L46.2326 9.2558L46.1304 9.20472L46.0538 9.12809L45.8494 9.02592L45.6451 8.89821L45.1598 8.66832L44.6234 8.41289L44.0359 8.10638L43.7038 7.92758L43.3973 7.72324L43.0908 7.49335L42.7587 7.21238L42.7077 7.18683L42.6566 7.16129L42.631 7.1102L42.5799 7.05912L42.5289 7.03358L42.5033 6.98249L42.4011 6.88032L42.3501 6.80369L42.2734 6.67598L42.1968 6.57381L42.1457 6.47163L42.0946 6.34392L42.0435 6.2162L41.9925 6.08849L41.9669 5.96078L41.8903 5.67981L41.8392 5.39883L41.7881 5.09232L41.7626 4.81135L41.737 4.53038V4.2494V3.96843L41.7626 3.71301L41.7881 3.45758L41.8137 3.25323L41.8647 3.07443L41.8903 2.92118L41.9414 2.76792L42.018 2.61466L42.0946 2.48695L42.1713 2.33369L42.2479 2.20597L42.3501 2.07826L42.4522 1.97609L42.5544 1.87392L42.6821 1.7462L42.8098 1.66958L42.9375 1.5674L43.0653 1.49077L43.193 1.3886L43.3462 1.31197L43.4995 1.26089L43.6527 1.18426L43.806 1.13317L43.9848 1.08209L44.3169 0.979915L44.6489 0.90329L45.0065 0.852201L45.3641 0.82666H45.7473H46.1049L46.4625 0.852201L46.82 0.90329L47.1777 0.979915L47.5353 1.05654L47.8418 1.15872L48.1738 1.26089L48.4548 1.3886L48.608 1.46523L48.7358 1.54186L48.8635 1.61849L48.9912 1.72066L49.1189 1.79729L49.2211 1.89946L49.3233 1.97609L49.4254 2.07826L49.5276 2.18043L49.6042 2.2826L49.6809 2.41032L49.7064 2.4614L49.7319 2.51249L49.783 2.56358L49.8086 2.6402L49.8341 2.69129V2.74238L49.8597 2.81901L49.8852 2.87009V2.92118L49.9107 2.9978V3.04889L49.9363 3.12552V3.20215V3.25323V4.93906H46.8456L46.8711 4.22386V4.0706L46.8456 3.91735V3.84072V3.78963L46.82 3.71301L46.7945 3.66192V3.63638V3.61083L46.769 3.58529V3.5342L46.7434 3.50866L46.7179 3.48312V3.45758H46.6923L46.6668 3.43203V3.40649L46.6413 3.38095L46.6157 3.3554L46.5902 3.32986H46.5646L46.5391 3.30432L46.5135 3.27877H46.4625L46.4369 3.25323L46.4114 3.22769H46.3858L46.3347 3.20215H46.3092L46.207 3.1766L46.1304 3.15106H46.0282H45.9261H45.8239H45.7728H45.7217H45.6962L45.6451 3.1766H45.594L45.5429 3.20215L45.4918 3.22769L45.4663 3.25323H45.4152L45.3641 3.30432L45.313 3.32986L45.2875 3.3554L45.2364 3.38095L45.2109 3.43203L45.1598 3.48312L45.1342 3.50866L45.1087 3.5342L45.0831 3.55975V3.58529L45.0576 3.61083V3.63638L45.0321 3.66192V3.68746L45.0065 3.71301V3.76409V3.78963L44.981 3.81518V3.84072V3.86626V3.91735V3.94289L44.9554 3.96843V4.01952V4.04506L44.981 4.09615V4.12169V4.19832L45.0065 4.27495L45.0321 4.37712L45.0576 4.45375L45.0831 4.53038L45.1342 4.63255L45.2109 4.73472L45.313 4.83689L45.4152 4.93906L45.4918 5.04123L45.6962 5.22003L45.9005 5.37329L46.1049 5.52655L46.3347 5.65426L46.5646 5.78198L46.769 5.88415L47.663 6.29283L48.1227 6.49718L48.3271 6.59935L48.5314 6.72706L48.7358 6.82924L48.9146 6.95695L49.0167 7.03358L49.1189 7.1102L49.1955 7.18683L49.2722 7.26346L49.3488 7.34009L49.451 7.44226L49.502 7.54444L49.5787 7.62106L49.6553 7.72324L49.7319 7.85095L49.783 7.95312L49.8341 8.08083L49.8852 8.20855L49.9363 8.33626L49.9874 8.46398L50.0384 8.61724L50.064 8.77049L50.0895 8.92375L50.1406 9.07701V9.2558L50.1917 9.61341V10.0221L50.1662 10.4563L50.1406 10.9416L50.1151 11.1204L50.0895 11.2737L50.0384 11.4525L49.9874 11.6058L49.9107 11.759L49.8341 11.9123L49.7575 12.0655L49.6553 12.1932L49.5531 12.3209L49.451 12.4487L49.3233 12.5764L49.1955 12.7041L49.0678 12.8063L48.9401 12.9084L48.7869 13.0106L48.6336 13.0872L48.4803 13.1639L48.3271 13.266L48.1483 13.3171L47.995 13.3938L47.8162 13.4704L47.6374 13.5215L47.2543 13.6236L46.8711 13.6747L46.488 13.7258L46.1049 13.7769H45.7217L45.313 13.7514L44.9299 13.7258L44.5467 13.6747L44.1891 13.5981L43.8315 13.4959L43.4739 13.3682L43.3207 13.2916L43.1419 13.2149L42.9886 13.1383L42.8609 13.0617L42.7077 12.9851L42.5799 12.8829L42.4522 12.7807L42.3245 12.6786L42.1968 12.5764L42.0946 12.4487L41.9925 12.3465L41.9158 12.2188L41.8137 12.0911L41.7881 12.0144L41.737 11.9378L41.7115 11.8867L41.6859 11.8101L41.6604 11.7335L41.6349 11.6568L41.6093 11.5802L41.5838 11.5036V11.4269L41.5582 11.3503V11.2737L41.5327 11.1971V11.1204V11.0438Z" fill="#074CA1"/>
<path d="M4.16349 0.801025L3.65263 0.85211L3.16731 0.903199L2.93743 0.954284L2.73309 1.00537L2.52874 1.05645L2.3244 1.10754L2.1456 1.18417L1.9668 1.2608L1.788 1.33743L1.63474 1.41406L1.48149 1.49068L1.35377 1.59286L1.22606 1.69503L1.09834 1.7972L0.996172 1.89937L0.868458 2.00154L0.791828 2.12925L0.689656 2.23143L0.613029 2.35914L0.5364 2.48686L0.459772 2.61457L0.408685 2.74229L0.332058 2.87L0.280971 2.99771L0.255429 3.12543L0.204344 3.27868L0.178799 3.4064L0.153257 3.53411L0.127714 3.68737V3.81508L0.102172 4.09606V4.37703L0.127714 4.658L0.153257 4.93897L0.204344 5.1944L0.280971 5.44983L0.3576 5.70526L0.434228 5.93514L0.510857 6.16503L0.613029 6.36937L0.715201 6.57372L0.817371 6.75251L0.919542 6.90577L0.970629 6.9824L1.02171 7.03349L1.0728 7.08457L1.12389 7.13566L1.17497 7.18674L1.20051 7.21229H1.22606L1.55811 7.49326L1.86463 7.72314L2.19669 7.92749L2.5032 8.10629L3.09069 8.4128L3.62709 8.66823L4.1124 8.89811L4.31674 9.02583L4.52109 9.128L4.62326 9.20463L4.69989 9.25571L4.77651 9.33235L4.85314 9.40897L4.92977 9.48561L4.95532 9.51114L4.98086 9.56223L5.0064 9.58778L5.03194 9.63886L5.05749 9.68995L5.08303 9.74103L5.13411 9.81766L5.1852 9.91983L5.21074 10.022L5.23629 10.0986L5.26183 10.1753V10.2774L5.28737 10.3541V10.4307V10.5073L5.26183 10.5839V10.6606L5.23629 10.7117L5.21074 10.7883L5.1852 10.8394L5.15966 10.916L5.13411 10.9671L5.10857 11.0182L5.05749 11.0693L5.0064 11.1203L4.98086 11.1714L4.92977 11.197L4.87869 11.2481L4.8276 11.2736L4.80206 11.2991L4.75097 11.3247L4.69989 11.3502L4.6488 11.3758L4.59771 11.4013H4.57217H4.54663H4.52109H4.49554H4.47H4.44446H4.41892H4.39337H4.2912H4.18903L4.08686 11.3758L4.01023 11.3502H3.95914L3.9336 11.3247L3.88251 11.2991H3.85697L3.80589 11.2736L3.78034 11.2481H3.7548L3.72926 11.2225L3.70371 11.197L3.67817 11.1714L3.65263 11.1459L3.62709 11.1203L3.60154 11.0948L3.576 11.0693L3.55046 11.0437V11.0182L3.52492 10.9926L3.49937 10.9671V10.9415L3.47383 10.916V10.8649L3.44829 10.8394L3.42274 10.7883V10.7117L3.3972 10.635V10.5584L3.37166 10.4818V10.3285V10.1497L3.3972 9.43452H0V11.0437V11.1203V11.197L0.0255425 11.2736V11.3502L0.0510849 11.4269V11.5035L0.0766294 11.5801L0.102172 11.6567L0.127714 11.7334L0.153257 11.81L0.178799 11.8866L0.229886 11.9377L0.255429 12.0143L0.280971 12.091L0.383143 12.2187L0.459772 12.3464L0.561942 12.4486L0.664114 12.5763L0.791828 12.6785L0.919542 12.7806L1.04726 12.8828L1.17497 12.985L1.32823 13.0616L1.48149 13.1382L1.63474 13.2149L1.788 13.2915L1.94126 13.3681L2.29886 13.4958L2.65646 13.598L3.01406 13.6746L3.3972 13.7257L3.80589 13.7513L4.18903 13.7768H4.57217L4.98086 13.7257L5.364 13.6746L5.7216 13.6235L6.10474 13.5214L6.28354 13.4703L6.46234 13.3937L6.6156 13.317L6.7944 13.2659L6.94766 13.1638L7.10092 13.0871L7.25417 13.0105L7.40743 12.9083L7.53514 12.8062L7.6884 12.704L7.79057 12.5763L7.91829 12.4486L8.02046 12.3209L8.12263 12.1931L8.2248 12.0654L8.30143 11.9122L8.37806 11.7589L8.45469 11.6057L8.50577 11.4524L8.55686 11.2736L8.5824 11.1203L8.60794 10.9415L8.63349 10.4562L8.65903 10.022V9.61332L8.63349 9.25571L8.60794 9.07692L8.5824 8.92366L8.53131 8.7704L8.50577 8.61715L8.45469 8.46389L8.42914 8.33617L8.37806 8.20846L8.30143 8.08074L8.25034 7.95303L8.19926 7.85086L8.12263 7.72314L8.046 7.62097L7.99492 7.54435L7.91829 7.44217L7.84166 7.34L7.73949 7.26337L7.66286 7.18674L7.58623 7.11011L7.48406 7.03349L7.40743 6.95686L7.20309 6.82914L6.99874 6.72697L6.7944 6.59926L6.59006 6.49709L6.15583 6.29274L5.23629 5.88406L5.03194 5.78189L4.80206 5.65417L4.59771 5.52646L4.36783 5.3732L4.16349 5.21994L3.98469 5.04114L3.88251 4.93897L3.78034 4.8368L3.70371 4.73463L3.60154 4.63246L3.55046 4.53029L3.52492 4.45366L3.49937 4.37703L3.47383 4.27486L3.44829 4.19823V4.1216V4.09606V4.04497V4.01943V3.96834V3.9428V3.91725V3.86617V3.84063V3.81508L3.47383 3.78954V3.764L3.49937 3.71291V3.68737V3.66183L3.52492 3.63629V3.61074L3.55046 3.5852L3.576 3.55966V3.53411L3.60154 3.50857L3.62709 3.48303L3.67817 3.43194L3.70371 3.38086L3.7548 3.35531L3.80589 3.32977L3.83143 3.30423L3.88251 3.25314H3.9336L3.98469 3.2276L4.01023 3.20206L4.06132 3.17651H4.1124L4.16349 3.15097H4.21457H4.24011H4.2912H4.39337H4.49554H4.59771L4.69989 3.17651L4.77651 3.20206H4.80206L4.85314 3.2276H4.87869L4.90423 3.25314L4.95532 3.27868H4.98086L5.0064 3.30423L5.03194 3.32977H5.05749L5.08303 3.35531L5.10857 3.38086L5.13411 3.4064V3.43194L5.15966 3.45749H5.1852L5.21074 3.48303V3.50857L5.23629 3.53411V3.5852L5.26183 3.61074V3.63629L5.28737 3.66183V3.71291L5.31292 3.78954V3.84063L5.33846 3.91725V4.07051V4.22377L5.31292 4.93897H8.4036V3.25314V3.17651V3.07434L8.37806 2.99771V2.89554L8.35251 2.81891L8.32697 2.74229L8.30143 2.66566V2.58903L8.25034 2.5124L8.2248 2.43577L8.19926 2.38468L8.14817 2.30806L8.12263 2.23143L8.07154 2.18034L8.02046 2.10371L7.99492 2.05263L7.94383 2.00154L7.89274 1.95045L7.81611 1.87383L7.76503 1.82274L7.66286 1.72057L7.53514 1.6184L7.38189 1.54177L7.25417 1.46514L7.10092 1.38851L6.94766 1.31188L6.7944 1.23525L6.6156 1.18417L6.28354 1.082L5.92594 1.00537L5.59389 0.92874L5.21074 0.877655L4.85314 0.85211L4.16349 0.801025Z" fill="#074CA1"/>
<path d="M85.543 14.211L85.9261 14.2365L86.3093 14.211L86.6413 14.1854L86.9479 14.1599L87.2288 14.1088L87.4843 14.0322L87.612 14.0066L87.7397 13.9555L87.8419 13.93L87.944 13.8789L88.0462 13.8278L88.1484 13.7767L88.2505 13.7256L88.3272 13.6746L88.4293 13.6235L88.506 13.5468L88.5826 13.4958L88.6337 13.4191L88.7103 13.368L88.7614 13.2914L88.838 13.2148L88.8891 13.1382L88.9402 13.0871L88.9913 13.0104L89.0424 12.9338L89.0679 12.8572L89.119 12.7806L89.1445 12.7039L89.1956 12.5251L89.2467 12.3719L89.2978 12.2186L89.3233 12.0398L89.3489 11.8866L89.3744 11.7078L89.4 11.5545V11.2224V10.9159V10.3795V7.08451H85.3897V8.84696H86.2071V10.9159V10.967V11.0181V11.0436L86.1816 11.0947V11.1458V11.1714L86.156 11.2224L86.1305 11.248V11.2991L86.1049 11.3246L86.0794 11.3757L86.0539 11.4012L86.0283 11.4523L86.0028 11.4779L85.9772 11.5034L85.9517 11.529L85.9261 11.5545L85.9006 11.58L85.8495 11.6056L85.824 11.6311L85.7984 11.6567L85.7473 11.6822L85.7218 11.7078L85.6707 11.7333H85.6452L85.5941 11.7588H85.5685L85.5175 11.7844H85.4664H85.4153H85.3897H85.3387H85.2876H85.2365H85.2109H85.1599L85.1088 11.7588H85.0832L85.0321 11.7333H85.0066L84.9555 11.7078L84.93 11.6822L84.8789 11.6567L84.8533 11.6311L84.8278 11.6056L84.7767 11.58L84.7512 11.5545L84.7256 11.529L84.7001 11.5034L84.6745 11.4779L84.649 11.4523L84.6235 11.4012L84.5979 11.3757L84.5724 11.3246L84.5468 11.2991V11.248L84.5213 11.2224L84.4957 11.1714V11.1458V11.0947L84.4702 11.0436V11.0181V10.967V10.9159V4.14708V4.12154V4.07045V4.01937L84.4957 3.96828V3.94274V3.89165L84.5213 3.86611L84.5468 3.81502V3.78948L84.5724 3.73839L84.5979 3.71285L84.6235 3.66177L84.649 3.63622L84.6745 3.61068L84.7001 3.5596L84.7256 3.53405L84.7512 3.50851L84.7767 3.48297L84.8278 3.45743L84.8533 3.43188L84.8789 3.40634L84.93 3.3808H84.9555L85.0066 3.35525L85.0321 3.32971H85.0832L85.1088 3.30417H85.1599H85.2109L85.2365 3.27862H85.2876H85.3387H85.3897H85.4153L85.4664 3.30417H85.5175H85.5685L85.5941 3.32971H85.6452L85.6707 3.35525L85.7218 3.3808H85.7473L85.7984 3.40634L85.824 3.43188L85.8495 3.45743L85.9006 3.48297L85.9261 3.50851L85.9517 3.53405L85.9772 3.5596L86.0028 3.61068L86.0283 3.63622L86.0539 3.66177L86.0794 3.71285L86.1049 3.73839L86.1305 3.78948V3.81502L86.156 3.86611L86.1816 3.89165V3.94274V3.96828L86.2071 4.01937V4.07045V4.12154V4.14708V5.27096H89.4V3.89165L89.3744 3.71285V3.63622V3.53405L89.3489 3.45743V3.3808L89.3233 3.30417L89.2978 3.22754L89.2723 3.15091L89.2467 3.07428L89.2212 2.99765L89.1956 2.92102L89.1445 2.8444L89.119 2.79331L89.0424 2.64005L88.9402 2.51234L88.8636 2.38462L88.7359 2.28245L88.6337 2.15474L88.506 2.05257L88.3783 1.9504L88.2505 1.84823L88.1228 1.7716L87.9696 1.66943L87.8163 1.5928L87.6631 1.51617L87.4843 1.43954L87.331 1.38845L87.1522 1.33737L86.7946 1.2352L86.437 1.15857L86.0539 1.08194L85.6707 1.0564H85.2876H84.9044L84.5468 1.08194L84.1637 1.13303L83.8061 1.20966L83.4485 1.31182L83.2697 1.36291L83.1164 1.43954L82.9376 1.49062L82.7844 1.56725L82.6311 1.64388L82.4779 1.74605L82.3501 1.82268L82.2224 1.92486L82.0947 2.02703L81.967 2.12919L81.8393 2.25691L81.7371 2.35908L81.6605 2.4868L81.5583 2.61451L81.4817 2.74223L81.4561 2.81885L81.4051 2.89548L81.3795 2.94657L81.354 3.02319L81.3284 3.09982L81.3029 3.17645L81.2773 3.25308L81.2518 3.32971V3.40634L81.2263 3.50851V3.58514V3.66177L81.2007 3.84057V11.4523V11.5545L81.2263 11.6822V11.7844V11.8866L81.2518 11.9887L81.2773 12.0909L81.3029 12.1931L81.3284 12.2952L81.354 12.3719L81.3795 12.474L81.4306 12.5507L81.4561 12.6273L81.5072 12.7039L81.5583 12.7806L81.5839 12.8572L81.6349 12.9338L81.7116 13.0104L81.7627 13.0871L81.8137 13.1382L81.8648 13.2148L81.9415 13.2659L81.9925 13.317L82.1458 13.4447L82.2735 13.5468L82.4268 13.6235L82.58 13.7001L82.7588 13.7767L82.9121 13.8534L83.0909 13.93L83.2697 13.9811L83.4485 14.0322L83.8061 14.1088L84.1637 14.1599L84.5468 14.211H84.9044L85.2365 14.2365L85.543 14.211Z" fill="#074CA1"/>
</svg>
