<svg width="107" height="22" viewBox="0 0 107 22" fill="none" xmlns="http://www.w3.org/2000/svg">
<path d="M103.505 4.40574L99.2262 4.49489L98.0851 0.465352C97.8177 0.429693 97.5324 0.411865 97.2649 0.411865C96.9797 0.411865 96.7122 0.429693 96.4448 0.465352L95.3037 4.49489L91.0245 4.40574C90.7927 4.90497 90.6144 5.42204 90.5074 5.97476L93.9129 8.20349L92.5757 12.3222C92.9858 12.6966 93.4315 13.0175 93.9129 13.3028L97.2471 10.557L100.599 13.3028C101.081 13.0354 101.526 12.6966 101.936 12.3222L100.581 8.20349L104.005 5.97476C103.898 5.42204 103.737 4.88714 103.505 4.40574Z" fill="black"/>
<path d="M87.1377 20.8269C87.1377 20.2385 87.6191 19.7571 88.2075 19.7571C88.7959 19.7571 89.2773 20.2385 89.2773 20.8269C89.2773 21.4153 88.7959 21.8967 88.2075 21.8967C87.6191 21.9145 87.1377 21.4331 87.1377 20.8269ZM89.1525 20.8269C89.1525 20.3098 88.7246 19.8819 88.2075 19.8819C87.6904 19.8819 87.2625 20.3098 87.2625 20.8269C87.2625 21.3618 87.6904 21.7718 88.2075 21.7718C88.7424 21.7718 89.1525 21.3618 89.1525 20.8269ZM88.7602 21.4331H88.5819L88.2431 20.8804H87.9757V21.4331H87.8331V20.2385H88.368C88.4749 20.2385 88.5641 20.2385 88.6532 20.292C88.7424 20.3455 88.7959 20.4524 88.7959 20.5594C88.7959 20.7912 88.6354 20.8804 88.4214 20.8982L88.7602 21.4331ZM88.1897 20.7555C88.3501 20.7555 88.6176 20.7912 88.6176 20.5416C88.6176 20.3633 88.4571 20.3276 88.2966 20.3276H87.9579V20.7555H88.1897Z" fill="black"/>
<path fill-rule="evenodd" clip-rule="evenodd" d="M12.2882 9.4338L12.3952 8.86325C12.4665 8.52448 12.5022 8.22137 12.0921 8.22137H0.930657C0.66321 8.22137 0.360104 8.18572 0.288784 8.56014L0.0569973 9.46946C-0.0143219 9.77256 0.288784 9.84388 0.520572 9.84388H1.66168C3.56947 9.84388 4.40747 9.9152 3.87257 12.0904L1.69734 21.2015C1.69734 21.3976 1.42989 21.8968 2.19657 21.8968H4.9067C5.28113 21.8968 5.54857 21.8255 5.67338 21.3976L7.84862 12.0904C8.11606 11.0207 8.41917 9.84388 10.0952 9.84388H11.6999C11.9138 9.86171 12.1456 9.9687 12.2882 9.4338Z" fill="black"/>
<path fill-rule="evenodd" clip-rule="evenodd" d="M50.4796 12.9819H40.4058H39.6391C39.3716 12.9819 39.229 13.1246 39.1755 13.3207L37.2677 21.3976C37.1608 21.8077 37.6065 21.8968 37.8739 21.8968H40.0848C40.6197 21.8968 40.6911 21.665 40.7802 21.3976L42.2601 15.0324C42.3671 14.5331 42.7593 14.2657 43.1337 14.2657C43.5082 14.2657 43.9717 14.5688 43.8291 15.175L42.3492 21.3976C42.2779 21.8968 42.7771 21.8968 42.9554 21.8968H45.095C45.3981 21.8968 45.7369 21.8612 45.826 21.3976L47.3059 15.0324C47.4129 14.5331 47.8051 14.2657 48.2152 14.2657C48.6431 14.2657 49.0176 14.5688 48.8571 15.175L47.4129 21.4333C47.3059 21.8968 47.7873 21.8968 47.9834 21.8968H50.0874C50.4261 21.8612 50.8184 21.8612 50.8897 21.3976L52.3517 15.175C52.7618 13.5168 51.5316 12.9819 50.4796 12.9819Z" fill="black"/>
<path fill-rule="evenodd" clip-rule="evenodd" d="M72.5885 8.22134H70.2528C69.9854 8.22134 69.6109 8.18568 69.4861 8.64926L66.7938 20.1138C66.6869 20.6131 66.2946 20.7913 65.9202 20.7913C65.5458 20.7913 65.1535 20.4882 65.314 19.882L66.4551 14.961C66.5621 14.5688 66.7225 14.1587 67.3644 14.1587C67.5605 14.1587 67.6675 14.1587 67.7566 13.7842C67.828 13.4811 68.0598 12.9819 67.6497 12.9819H65.4388C64.369 12.9819 63.5666 13.5524 63.3883 14.4618L62.2829 19.2758C62.0155 20.3099 62.1759 21.9146 63.5132 21.9146H69.2722C69.6109 21.9146 69.9497 21.8433 70.0745 21.4154L73.0164 8.86321C73.0164 8.59576 73.1591 8.22134 72.5885 8.22134Z" fill="black"/>
<path fill-rule="evenodd" clip-rule="evenodd" d="M60.0542 12.9819H54.8301C54.42 12.9819 54.1882 12.9819 54.0634 13.285L53.9921 13.6951C53.9564 13.8199 53.9208 14.0696 54.2239 14.0696H58.0573C58.6992 14.0696 58.5565 14.4796 58.3247 15.5138L57.255 20.0604C57.148 20.5596 56.7914 20.7914 56.417 20.7914C56.0425 20.7914 55.6503 20.4883 55.8107 19.8821L56.4526 17.1363C56.5239 16.8332 56.6131 16.6014 57.148 16.6014C57.255 16.6014 57.6116 16.6014 57.6829 16.2983C57.7542 16.1021 57.9503 15.6564 57.6116 15.6564H54.7588C53.4572 15.6564 53.3146 16.6014 53.1898 17.1541L52.6905 19.258C52.4231 20.3991 52.6905 21.9325 53.9921 21.9325H56.0069H59.662C60.0007 21.9325 60.3752 21.8968 60.5 21.4333L61.9442 15.2107C62.3721 13.5168 61.1597 12.9819 60.0542 12.9819Z" fill="black"/>
<path fill-rule="evenodd" clip-rule="evenodd" d="M28.8521 12.9819H26.8196H23.3962C23.0575 12.9819 22.3978 13.2137 22.1838 14.0874L20.8822 19.6859C20.4543 21.3619 21.7202 21.8968 22.79 21.8968H28.1211C28.5847 21.8968 28.6917 21.8612 28.763 21.5937L28.87 21.1836C28.9056 21.0767 28.9591 20.7735 28.6382 20.8092H24.7513C24.1094 20.8092 24.2164 20.4704 24.4838 19.3293L25.5536 14.8362C25.6606 14.337 26.0172 14.1052 26.3916 14.1052C26.8909 14.1052 27.1583 14.4083 26.9978 15.0145L26.6234 16.7975C26.5164 17.1363 26.4273 17.3681 25.8924 17.3681C25.7319 17.3681 25.4288 17.3681 25.3575 17.6712L25.2862 17.9743C25.2149 18.2061 25.3218 18.313 25.518 18.313H28.2994C29.6367 18.313 29.7436 17.2789 29.8328 16.8332L30.2607 15.0502C30.5995 13.713 29.7971 12.9819 28.8521 12.9819Z" fill="black"/>
<path fill-rule="evenodd" clip-rule="evenodd" d="M18.8497 12.9819H16.4783C16.0147 12.9819 15.9434 12.9105 16.0147 12.5183L16.8884 8.82751C16.9597 8.56007 16.9597 8.22129 16.514 8.22129H14.1961C13.9286 8.22129 13.5542 8.14998 13.3937 8.64921L10.4162 21.2727C10.3805 21.5758 10.2557 21.9146 10.8619 21.9146H13.1263C13.5542 21.9146 13.8573 21.8433 13.9643 21.4153L15.4977 14.854C15.6581 14.3547 15.7651 14.123 16.6388 14.123C17.0667 14.123 17.4768 14.4617 17.2806 15.0679L15.8364 21.3975C15.7294 21.8967 16.1752 21.8967 16.3713 21.8967H18.5109C18.814 21.8967 19.1884 21.8254 19.3132 21.3975L20.7574 15.2106C21.1319 13.5524 19.9551 12.9819 18.8497 12.9819Z" fill="black"/>
<path fill-rule="evenodd" clip-rule="evenodd" d="M79.6136 12.9819H74.0507C73.7119 12.9819 73.0165 13.1602 72.8382 14.0517L71.501 19.6859C71.1266 21.3619 72.2677 21.8968 73.4088 21.8968H78.9717C79.3105 21.8968 80.0058 21.665 80.1841 20.7914L81.5214 15.1928C81.9314 13.5168 80.6834 12.9819 79.6136 12.9819ZM78.0089 15.0502L76.8678 19.9712C76.7251 20.5418 76.4042 20.8092 75.798 20.8092C75.4236 20.8092 74.9956 20.5061 75.1561 19.8999L76.2972 14.9432C76.4042 14.444 76.7251 14.1765 77.3314 14.1765C77.7414 14.1587 78.1694 14.4796 78.0089 15.0502Z" fill="black"/>
<path fill-rule="evenodd" clip-rule="evenodd" d="M37.6957 14.0874C37.8562 14.0874 38.0702 14.123 38.1593 13.8199L38.2306 13.3564C38.2663 13.2494 38.3911 12.9819 38.1236 12.9819H32.329C32.0615 12.9819 31.901 13.1602 31.8297 13.3564L29.9576 21.3619C29.8506 21.8612 30.2607 21.8968 30.5282 21.8968H32.739C33.2739 21.8968 33.3453 21.665 33.4344 21.3976L34.7003 16.013C35.2174 13.7843 36.5903 14.123 37.6957 14.0874Z" fill="black"/>
<path fill-rule="evenodd" clip-rule="evenodd" d="M89.2951 12.9819H83.5539C83.2865 12.9819 83.0904 13.1602 83.0547 13.3564L81.1826 21.3619C81.0756 21.8612 81.4857 21.8968 81.7531 21.8968H83.964C84.4989 21.8968 84.5702 21.665 84.6416 21.3976L85.9075 16.013C86.4424 13.7664 87.7796 14.1052 88.9207 14.0696C89.0455 14.0696 89.2595 14.1052 89.3486 13.8021L89.4734 13.3385C89.4913 13.2494 89.5626 12.9819 89.2951 12.9819Z" fill="black"/>
<path d="M104.86 4.97628C104.86 4.3879 105.342 3.90649 105.93 3.90649C106.519 3.90649 107 4.3879 107 4.97628C107 5.56466 106.519 6.04607 105.93 6.04607C105.342 6.04607 104.86 5.56466 104.86 4.97628ZM106.875 4.97628C106.875 4.45922 106.447 4.0313 105.93 4.0313C105.413 4.0313 104.985 4.45922 104.985 4.97628C104.985 5.51118 105.413 5.92126 105.93 5.92126C106.465 5.92126 106.875 5.49335 106.875 4.97628ZM106.483 5.56466H106.305L105.966 5.01194H105.698V5.56466H105.556V4.37007H106.091C106.198 4.37007 106.287 4.37007 106.376 4.42356C106.465 4.47705 106.519 4.58402 106.519 4.691C106.519 4.92279 106.358 5.01194 106.144 5.02977L106.483 5.56466ZM105.912 4.90496C106.073 4.90496 106.34 4.94062 106.34 4.691C106.34 4.51271 106.18 4.47704 106.019 4.47704H105.681V4.90496H105.912Z" fill="black"/>
</svg>
