<svg width="32" height="45" viewBox="0 0 32 45" fill="none" xmlns="http://www.w3.org/2000/svg">
<path d="M26.6896 4.73334H5.31036C4.20929 4.73334 3.19995 5.66088 3.19995 6.86667V38.8667C3.19995 39.9797 4.11753 41 5.31036 41H26.6896C27.7906 41 28.7999 40.0725 28.7999 38.8667V6.86667C28.7999 5.66088 27.8824 4.73334 26.6896 4.73334Z" stroke="white" stroke-width="1.75" stroke-miterlimit="10" stroke-linecap="round" stroke-linejoin="round"/>
<path d="M11.7334 1H20.2667" stroke="white" stroke-width="1.75" stroke-miterlimit="10" stroke-linecap="round" stroke-linejoin="round"/>
<path d="M9.6001 35.6667H22.4001" stroke="white" stroke-width="1.75" stroke-miterlimit="10" stroke-linecap="round" stroke-linejoin="round"/>
<path d="M7.46655 41V43.6667" stroke="white" stroke-width="1.75" stroke-miterlimit="10" stroke-linecap="round" stroke-linejoin="round"/>
<path d="M24.5334 41V43.6667" stroke="white" stroke-width="1.75" stroke-miterlimit="10" stroke-linecap="round" stroke-linejoin="round"/>
<path d="M11.738 19.8856L13.3217 17.2771C14.4396 15.414 17.0481 15.414 18.166 17.2771L19.2839 19.2335" stroke="white" stroke-width="1.75" stroke-miterlimit="10" stroke-linecap="round" stroke-linejoin="round"/>
<path d="M9.40903 23.8914L8.38428 25.6614C7.26637 27.5246 8.66376 29.8536 10.8064 29.8536H13.4149" stroke="white" stroke-width="1.75" stroke-miterlimit="10" stroke-linecap="round" stroke-linejoin="round"/>
<path d="M21.6128 23.2393L23.1033 25.7546C24.2212 27.6178 22.8238 29.9467 20.6812 29.9467H17.6069" stroke="white" stroke-width="1.75" stroke-miterlimit="10" stroke-linecap="round" stroke-linejoin="round"/>
<path d="M9.78159 23.4256C9.87475 23.4256 10.0611 23.4256 10.1542 23.3325L12.4832 22.0282C12.949 21.7488 12.949 21.0966 12.4832 20.8172L11.6448 20.3514L10.1542 19.513C9.68843 19.2335 9.12947 19.6061 9.12947 20.0719V22.7735C9.03631 23.053 9.40896 23.4256 9.78159 23.4256Z" stroke="white" stroke-width="1.5" stroke-miterlimit="10" stroke-linecap="round" stroke-linejoin="round"/>
<path d="M22.0785 20.5377L20.4948 19.6061C19.8427 19.2335 19.0974 19.6993 19.0974 20.4445V22.3077C19.0974 23.053 19.8427 23.5188 20.4948 23.1461L22.0785 22.2146C22.7306 21.7488 22.7306 20.9103 22.0785 20.5377Z" stroke="white" stroke-width="1.5" stroke-miterlimit="10" stroke-linecap="round" stroke-linejoin="round"/>
<path d="M16.8617 29.1083L15.278 28.1767C14.6259 27.8041 13.8806 28.2699 13.8806 29.0152V30.8783C13.8806 31.6236 14.6259 32.0894 15.278 31.7168L16.8617 30.7852C17.5138 30.3194 17.5138 29.481 16.8617 29.1083Z" stroke="white" stroke-width="1.5" stroke-miterlimit="10" stroke-linecap="round" stroke-linejoin="round"/>
</svg>
