<svg width="94" height="30" viewBox="0 0 94 30" fill="none" xmlns="http://www.w3.org/2000/svg">
<path d="M91.0041 0H2.99591C1.34678 0 0 1.31367 0 2.92225V27.0777C0 28.6863 1.34678 30 2.99591 30H91.0041C92.6532 30 94 28.6863 94 27.0777V2.92225C94 1.31367 92.6532 0 91.0041 0ZM91.2515 25.067C91.2515 26.4343 90.1246 27.5335 88.7503 27.5335H5.24971C3.87544 27.5335 2.74854 26.4343 2.74854 25.067V4.95979C2.74854 3.59249 3.87544 2.4933 5.24971 2.4933H88.7778C90.152 2.4933 91.2789 3.59249 91.2789 4.95979V25.067H91.2515ZM73.331 8.23056H67.1468C66.3772 8.23056 66.9269 8.79357 66.9269 8.79357C68.686 9.06166 68.8509 11.1528 68.8509 11.1528C68.8509 11.1528 68.8509 15.1743 68.8509 17.8284L63.931 8.23056H57.1696C57.0871 8.23056 57.0322 8.23056 56.9772 8.25737C56.8947 8.23056 56.8398 8.23056 56.8398 8.23056H47.5497V8.25737H40.9257C40.3485 8.25737 40.9257 8.79357 40.9257 8.79357C43.207 8.79357 41.9977 10.3217 41.9977 10.3217L37.2152 15.0402V11.2332C37.2152 10.2145 38.617 9.32976 39.4415 8.79357C40.2386 8.25737 39.4415 8.23056 39.4415 8.23056H22.5105C22.6205 7.98928 22.7029 7.80161 22.7579 7.69437C23.3351 6.40751 24.1322 5.81769 24.7368 5.46917C25.3415 5.12064 24.7368 4.93298 24.7368 4.93298H16.4912C15.7766 4.93298 16.4912 5.46917 16.4912 5.46917C18.6351 6.56836 17.838 8.20375 17.838 8.20375L14.5673 15.5496L11.6813 7.66756C11.4064 6.19303 13.083 5.49598 13.083 5.49598C13.6602 5.14745 13.083 4.93298 13.083 4.93298H5.77193C5.41462 4.93298 5.41462 5.17426 5.49708 5.30831C5.55205 5.41555 5.68947 5.44236 5.68947 5.44236C7.25614 5.41555 8.02573 7.66756 8.02573 7.66756L15.0895 24.3164C15.1719 24.504 15.3918 24.3432 15.3918 24.3432C15.3918 24.3432 20.6415 12.3861 22.2906 8.68633C24.0497 9.14209 24.1871 11.126 24.1871 11.126C24.1871 11.126 24.1871 18.7131 24.1871 19.9196C24.1871 21.126 23.2801 21.5281 22.593 21.9839L21.631 22.1716L21.6035 22.5469H22.593C22.593 22.5469 29.5468 22.5469 30.2614 22.5469C30.3164 22.5469 30.3713 22.5469 30.4263 22.5469H31.4158C31.4158 22.5469 38.3696 22.5469 39.0842 22.5469C40.2936 22.5469 39.1117 22.0107 39.1117 22.0107C37.7374 21.6086 37.1877 19.9464 37.1877 19.9464C37.1877 19.9464 37.1877 18.7936 37.1877 17.319L39.1117 15.2815L41.5304 20.0804C41.5304 21.2332 41.0082 21.6086 40.6509 21.9839C40.2936 22.3592 40.6509 22.5201 40.6509 22.5201H48.7865C48.7865 22.5201 55.7403 22.5201 56.455 22.5201C56.6199 22.5201 56.7298 22.5201 56.8123 22.4933C56.9497 22.5469 57.1971 22.5201 57.1971 22.5201C57.1971 22.5201 62.2544 22.5201 62.969 22.5201C63.6836 22.5201 62.9965 21.9839 62.9965 21.9839C61.6222 21.5818 61.0725 19.9196 61.0725 19.9196C61.0725 19.9196 61.0725 14.37 61.0725 12.0643L66.9269 22.5201H67.1743C67.1743 22.5201 67.2567 22.5201 67.3941 22.5201H71.0772V19.9196C71.0772 19.9196 71.0772 12.1984 71.0772 11.1796C71.0772 10.1609 72.4789 9.27614 73.3035 8.73995C74.1281 8.25737 73.331 8.23056 73.331 8.23056ZM33.0099 19.9464C33.0099 21.1528 32.1029 21.555 31.4158 22.0107L30.5637 22.1716C30.4263 22.0912 30.3164 22.0375 30.3164 22.0375C28.9421 21.6354 28.3924 19.9732 28.3924 19.9732C28.3924 19.9732 28.3924 12.252 28.3924 11.2332C28.3924 10.2145 29.7942 9.32976 30.6187 8.79357C30.7012 8.73995 30.7836 8.68633 30.8386 8.63271L30.976 8.65952C32.9 9.00804 33.0374 11.1528 33.0374 11.1528C33.0374 11.1528 33.0099 18.7399 33.0099 19.9464ZM50.4082 19.9464C50.4082 21.1528 49.5012 21.555 48.814 22.0107L47.852 22.1984V22.2252C47.3298 22.2252 47.1374 21.7962 47.1374 21.7962L42.2725 12.1984C44.114 9.65147 47.1924 8.65952 47.6047 8.55228L48.3468 8.68633C50.2708 9.03485 50.4082 11.1796 50.4082 11.1796C50.4082 11.1796 50.4082 18.7399 50.4082 19.9464ZM58.8187 19.9464C58.8187 21.1528 57.9117 21.555 57.2246 22.0107C57.0596 22.118 56.9772 22.1984 56.8947 22.252C56.7298 22.1448 56.5099 22.0375 56.5099 22.0375C55.1357 21.6354 54.586 19.9732 54.586 19.9732C54.586 19.9732 54.586 12.252 54.586 11.2332C54.586 10.2145 55.9877 9.32976 56.8123 8.79357C56.8398 8.76676 56.8398 8.76676 56.8672 8.73995C56.8947 8.76676 56.8947 8.79357 56.8947 8.79357C58.6538 9.06166 58.8187 11.1528 58.8187 11.1528C58.8187 11.1528 58.8187 18.7399 58.8187 19.9464ZM88.1731 16.9437C88.1731 16.9437 81.7965 16.9437 81.1094 16.9437C80.4222 16.9437 81.1368 17.4263 81.1368 17.4263C82.6485 17.7212 82.7035 19.9464 82.7035 19.9464C82.7035 23.4048 79.6801 23.5389 79.6801 23.5389C79.1579 23.6193 76.1895 23.0563 76.1895 16.2198C76.1895 9.38338 80.5047 9.27614 80.5047 9.27614C84.3251 9.27614 85.8918 13.244 86.1117 13.6729C86.3316 14.0751 86.6339 13.6461 86.6339 13.6461L85.8368 7.18499C85.7269 6.16622 85.2597 7.18499 85.2597 7.18499C84.8749 9.437 83.0058 8.52547 83.0058 8.52547C81.7415 7.88204 80.3947 7.88204 80.3947 7.88204C77.5637 7.80161 71.7094 9.49062 71.7094 16.2198C71.7094 22.9491 78.0035 24.5844 78.0035 24.5844C79.8725 24.7453 79.0205 24.7185 81.9889 24.0483C84.4626 23.5121 85.3971 24.3432 86.1667 25.0134C86.9363 25.6836 86.8263 25.0134 86.8263 25.0134C86.8263 25.0134 86.8263 20.0268 86.8263 19.008C86.8263 17.9893 87.5134 17.9088 88.1731 17.4263C88.8602 16.9705 88.1731 16.9437 88.1731 16.9437Z" fill="black"/>
</svg>
