<svg width="26" height="26" viewBox="0 0 26 26" fill="none" xmlns="http://www.w3.org/2000/svg">
<path d="M13.6146 8.37769C14.6773 8.49957 15.667 8.97881 16.4214 9.73684C17.1758 10.4949 17.6502 11.4868 17.7667 12.5497" stroke="#3A4151" stroke-linecap="round" stroke-linejoin="round"/>
<path d="M13.6146 10.4797C14.1263 10.5807 14.5962 10.8322 14.964 11.2019C15.3318 11.5717 15.5807 12.0429 15.6787 12.555" stroke="#3A4151" stroke-linecap="round" stroke-linejoin="round"/>
<path d="M10.5865 13.0536C11.1202 14.0344 11.9227 14.8429 12.8999 15.3839C13.3025 15.6031 13.7743 15.658 14.2166 15.5374L15.0607 15.3104C15.1774 15.2782 15.2994 15.2701 15.4193 15.2868C15.5391 15.3035 15.6543 15.3446 15.7577 15.4075C16.3464 15.7725 16.8958 16.1974 17.3972 16.6753L17.431 16.7085C17.5757 16.8563 17.6709 17.0456 17.7033 17.2499C17.7288 18.0296 16.5335 19.0742 16.3028 19.2065C15.7529 19.6049 15.04 19.5961 14.1633 19.1894C11.7313 18.1743 7.83783 14.3326 6.80811 11.7907C6.41366 10.9185 6.38874 10.1898 6.78675 9.63954C6.97181 9.32884 8.00329 8.19626 8.73703 8.23421C8.95551 8.26898 9.15626 8.37536 9.30767 8.53661C9.78491 9.04488 10.2081 9.6013 10.5705 10.1969C10.6322 10.2998 10.6724 10.4142 10.6888 10.5331C10.7051 10.6521 10.6972 10.7731 10.6654 10.8888L10.4353 11.7497C10.3176 12.1877 10.3717 12.6541 10.5865 13.0536V13.0536Z" stroke="#3A4151" stroke-linecap="round" stroke-linejoin="round"/>
<rect x="0.5" y="0.5" width="25" height="25" rx="12.5" stroke="url(#paint0_linear)"/>
<defs>
<linearGradient id="paint0_linear" x1="121.06" y1="26.8635" x2="62.4954" y2="-64.9282" gradientUnits="userSpaceOnUse">
<stop stop-color="#54AAD9"/>
<stop offset="1" stop-color="#45B585"/>
</linearGradient>
</defs>
</svg>
